<mxfile host="app.diagrams.net" modified="2021-08-18T15:40:29.175Z" agent="5.0 (Macintosh; Intel Mac OS X 10_15_7) AppleWebKit/537.36 (KHTML, like Gecko) Chrome/92.0.4515.131 Safari/537.36" etag="RStOnYyTlBxLBvhjv2Eu" version="14.9.6" type="github" pages="2">
  <diagram name="Version 2" id="UzjzO_GgUASHsdlZslyv">
    <mxGraphModel dx="3628" dy="543" grid="1" gridSize="10" guides="1" tooltips="1" connect="1" arrows="1" fold="1" page="1" pageScale="1" pageWidth="2336" pageHeight="1654" background="#ffffff" math="0" shadow="0">
      <root>
        <mxCell id="wyB5MmASiWUWbdZRvzDF-0" />
        <mxCell id="wyB5MmASiWUWbdZRvzDF-1" parent="wyB5MmASiWUWbdZRvzDF-0" />
        <mxCell id="wyB5MmASiWUWbdZRvzDF-2" value="" style="swimlane;html=1;childLayout=stackLayout;horizontal=1;startSize=20;horizontalStack=0;rounded=0;shadow=0;labelBackgroundColor=none;strokeWidth=1;fontFamily=Verdana;fontSize=8;align=center;" parent="wyB5MmASiWUWbdZRvzDF-1" vertex="1">
          <mxGeometry x="10" y="60" width="2260" height="1216.5" as="geometry" />
        </mxCell>
        <mxCell id="wyB5MmASiWUWbdZRvzDF-3" value="Applicant Solciitor" style="swimlane;html=1;startSize=40;horizontal=0;" parent="wyB5MmASiWUWbdZRvzDF-2" vertex="1">
          <mxGeometry y="20" width="2260" height="420" as="geometry" />
        </mxCell>
        <mxCell id="wyB5MmASiWUWbdZRvzDF-4" style="edgeStyle=orthogonalEdgeStyle;rounded=0;orthogonalLoop=1;jettySize=auto;html=1;exitX=1;exitY=0.5;exitDx=0;exitDy=0;entryX=0;entryY=0.5;entryDx=0;entryDy=0;entryPerimeter=0;" parent="wyB5MmASiWUWbdZRvzDF-3" source="wyB5MmASiWUWbdZRvzDF-5" target="Y6NthDMX_8adtIv0fMUY-2" edge="1">
          <mxGeometry relative="1" as="geometry">
            <mxPoint x="150.00000000000023" y="68.50000000000011" as="targetPoint" />
          </mxGeometry>
        </mxCell>
        <mxCell id="wyB5MmASiWUWbdZRvzDF-5" value="&lt;b&gt;Start event:&lt;/b&gt;&lt;br&gt;&amp;nbsp;Apply for divorce" style="rounded=1;whiteSpace=wrap;html=1;shadow=0;labelBackgroundColor=none;strokeWidth=1;fontFamily=Verdana;fontSize=8;align=center;" parent="wyB5MmASiWUWbdZRvzDF-3" vertex="1">
          <mxGeometry x="50" y="59.99999999999997" width="70" height="37" as="geometry" />
        </mxCell>
        <mxCell id="c1NY_56T70xuO1JxPN3--2" value="Yes" style="edgeStyle=orthogonalEdgeStyle;rounded=0;orthogonalLoop=1;jettySize=auto;html=1;exitX=1;exitY=0.5;exitDx=0;exitDy=0;exitPerimeter=0;entryX=0;entryY=0.5;entryDx=0;entryDy=0;" parent="wyB5MmASiWUWbdZRvzDF-3" target="c1NY_56T70xuO1JxPN3--0" edge="1">
          <mxGeometry relative="1" as="geometry">
            <mxPoint x="720" y="91.75" as="sourcePoint" />
          </mxGeometry>
        </mxCell>
        <mxCell id="wyB5MmASiWUWbdZRvzDF-12" value="Is the &lt;br&gt;respondent represented?" style="strokeWidth=1;html=1;shape=mxgraph.flowchart.decision;whiteSpace=wrap;rounded=1;shadow=0;labelBackgroundColor=none;fontFamily=Verdana;fontSize=8;align=center;" parent="wyB5MmASiWUWbdZRvzDF-3" vertex="1">
          <mxGeometry x="650" y="68.25" width="80" height="50" as="geometry" />
        </mxCell>
        <mxCell id="4Gsy31ebdq-OGoGYC07o-0" style="edgeStyle=orthogonalEdgeStyle;rounded=0;orthogonalLoop=1;jettySize=auto;html=1;exitX=1;exitY=0.5;exitDx=0;exitDy=0;entryX=0;entryY=0.5;entryDx=0;entryDy=0;" edge="1" parent="wyB5MmASiWUWbdZRvzDF-3" source="wyB5MmASiWUWbdZRvzDF-29" target="Y6NthDMX_8adtIv0fMUY-24">
          <mxGeometry relative="1" as="geometry" />
        </mxCell>
        <mxCell id="wyB5MmASiWUWbdZRvzDF-29" value="Enter respondent details" style="rounded=1;whiteSpace=wrap;html=1;shadow=0;labelBackgroundColor=none;strokeWidth=1;fontFamily=Verdana;fontSize=8;align=center;" parent="wyB5MmASiWUWbdZRvzDF-3" vertex="1">
          <mxGeometry x="880" y="73.24999999999997" width="70" height="37" as="geometry" />
        </mxCell>
        <mxCell id="wyB5MmASiWUWbdZRvzDF-37" style="edgeStyle=orthogonalEdgeStyle;rounded=0;orthogonalLoop=1;jettySize=auto;html=1;exitX=1;exitY=0.5;exitDx=0;exitDy=0;entryX=0;entryY=0.5;entryDx=0;entryDy=0;" parent="wyB5MmASiWUWbdZRvzDF-3" source="wyB5MmASiWUWbdZRvzDF-38" target="wyB5MmASiWUWbdZRvzDF-40" edge="1">
          <mxGeometry relative="1" as="geometry">
            <mxPoint x="1750.0000000000002" y="95" as="targetPoint" />
          </mxGeometry>
        </mxCell>
        <mxCell id="wyB5MmASiWUWbdZRvzDF-38" value="&lt;b&gt;Draft application created&lt;/b&gt;&lt;br&gt;Event:&amp;nbsp;&lt;span&gt;	&lt;/span&gt;Apply for a divorce&lt;br&gt;State: draft" style="rounded=1;whiteSpace=wrap;html=1;shadow=0;labelBackgroundColor=none;strokeWidth=1;fontFamily=Verdana;fontSize=8;align=center;" parent="wyB5MmASiWUWbdZRvzDF-3" vertex="1">
          <mxGeometry x="1580" y="40" width="90" height="70" as="geometry" />
        </mxCell>
        <mxCell id="4Gsy31ebdq-OGoGYC07o-9" style="edgeStyle=orthogonalEdgeStyle;rounded=0;orthogonalLoop=1;jettySize=auto;html=1;entryX=0;entryY=0.25;entryDx=0;entryDy=0;" edge="1" parent="wyB5MmASiWUWbdZRvzDF-3" source="wyB5MmASiWUWbdZRvzDF-40" target="wyB5MmASiWUWbdZRvzDF-44">
          <mxGeometry relative="1" as="geometry" />
        </mxCell>
        <mxCell id="wyB5MmASiWUWbdZRvzDF-40" value="&lt;b&gt;Start event:&lt;/b&gt;&lt;br&gt;&amp;nbsp;Case submission" style="rounded=1;whiteSpace=wrap;html=1;shadow=0;labelBackgroundColor=none;strokeWidth=1;fontFamily=Verdana;fontSize=8;align=center;" parent="wyB5MmASiWUWbdZRvzDF-3" vertex="1">
          <mxGeometry x="1710" y="44.25" width="70" height="70" as="geometry" />
        </mxCell>
        <mxCell id="wyB5MmASiWUWbdZRvzDF-43" style="edgeStyle=orthogonalEdgeStyle;rounded=0;orthogonalLoop=1;jettySize=auto;html=1;exitX=1;exitY=0.5;exitDx=0;exitDy=0;entryX=0;entryY=0.5;entryDx=0;entryDy=0;" parent="wyB5MmASiWUWbdZRvzDF-3" source="wyB5MmASiWUWbdZRvzDF-44" target="wyB5MmASiWUWbdZRvzDF-46" edge="1">
          <mxGeometry relative="1" as="geometry" />
        </mxCell>
        <mxCell id="wyB5MmASiWUWbdZRvzDF-44" value="&lt;span&gt;Confirm SOT and reconciliation&lt;/span&gt;" style="rounded=1;whiteSpace=wrap;html=1;shadow=0;labelBackgroundColor=none;strokeWidth=1;fontFamily=Verdana;fontSize=8;align=center;fontStyle=0" parent="wyB5MmASiWUWbdZRvzDF-3" vertex="1">
          <mxGeometry x="1820" y="66.99999999999997" width="70" height="37" as="geometry" />
        </mxCell>
        <mxCell id="wyB5MmASiWUWbdZRvzDF-45" style="edgeStyle=orthogonalEdgeStyle;rounded=0;orthogonalLoop=1;jettySize=auto;html=1;exitX=1;exitY=0.5;exitDx=0;exitDy=0;entryX=0;entryY=0.5;entryDx=0;entryDy=0;" parent="wyB5MmASiWUWbdZRvzDF-3" source="wyB5MmASiWUWbdZRvzDF-46" target="wyB5MmASiWUWbdZRvzDF-47" edge="1">
          <mxGeometry relative="1" as="geometry" />
        </mxCell>
        <mxCell id="wyB5MmASiWUWbdZRvzDF-46" value="&lt;span&gt;Enter &#39;your name&#39; and &#39;name of firm&#39;&lt;/span&gt;" style="rounded=1;whiteSpace=wrap;html=1;shadow=0;labelBackgroundColor=none;strokeWidth=1;fontFamily=Verdana;fontSize=8;align=center;fontStyle=0" parent="wyB5MmASiWUWbdZRvzDF-3" vertex="1">
          <mxGeometry x="1930" y="66.99999999999997" width="70" height="37" as="geometry" />
        </mxCell>
        <mxCell id="wyB5MmASiWUWbdZRvzDF-47" value="&lt;b&gt;Finish event:&lt;/b&gt;&lt;br&gt;&amp;nbsp; Case submission&lt;br&gt;&lt;b&gt;To state:&lt;/b&gt;&amp;nbsp;Submitted" style="rounded=1;whiteSpace=wrap;html=1;shadow=0;labelBackgroundColor=none;strokeWidth=1;fontFamily=Verdana;fontSize=8;align=center;" parent="wyB5MmASiWUWbdZRvzDF-3" vertex="1">
          <mxGeometry x="2050" y="50.5" width="70" height="70" as="geometry" />
        </mxCell>
        <mxCell id="c1NY_56T70xuO1JxPN3--7" style="edgeStyle=orthogonalEdgeStyle;rounded=0;orthogonalLoop=1;jettySize=auto;html=1;exitX=1;exitY=0.5;exitDx=0;exitDy=0;entryX=0;entryY=0.5;entryDx=0;entryDy=0;" parent="wyB5MmASiWUWbdZRvzDF-3" source="c1NY_56T70xuO1JxPN3--0" edge="1">
          <mxGeometry relative="1" as="geometry">
            <mxPoint x="880.0000000000002" y="91.75" as="targetPoint" />
          </mxGeometry>
        </mxCell>
        <mxCell id="c1NY_56T70xuO1JxPN3--0" value="Enter respondent solicitor details" style="rounded=1;whiteSpace=wrap;html=1;shadow=0;labelBackgroundColor=none;strokeWidth=1;fontFamily=Verdana;fontSize=8;align=center;" parent="wyB5MmASiWUWbdZRvzDF-3" vertex="1">
          <mxGeometry x="770" y="73.24999999999997" width="70" height="37" as="geometry" />
        </mxCell>
        <mxCell id="Y6NthDMX_8adtIv0fMUY-12" style="edgeStyle=orthogonalEdgeStyle;rounded=0;orthogonalLoop=1;jettySize=auto;html=1;exitX=1;exitY=0.5;exitDx=0;exitDy=0;entryX=0;entryY=0.5;entryDx=0;entryDy=0;entryPerimeter=0;" parent="wyB5MmASiWUWbdZRvzDF-3" source="Y6NthDMX_8adtIv0fMUY-0" target="Y6NthDMX_8adtIv0fMUY-9" edge="1">
          <mxGeometry relative="1" as="geometry" />
        </mxCell>
        <mxCell id="4Gsy31ebdq-OGoGYC07o-94" style="edgeStyle=orthogonalEdgeStyle;rounded=0;orthogonalLoop=1;jettySize=auto;html=1;exitX=1;exitY=0.5;exitDx=0;exitDy=0;entryX=0;entryY=0.5;entryDx=0;entryDy=0;entryPerimeter=0;" edge="1" parent="wyB5MmASiWUWbdZRvzDF-3" source="Y6NthDMX_8adtIv0fMUY-0" target="4Gsy31ebdq-OGoGYC07o-73">
          <mxGeometry relative="1" as="geometry">
            <Array as="points">
              <mxPoint x="340" y="79" />
              <mxPoint x="340" y="162" />
              <mxPoint x="330" y="162" />
              <mxPoint x="330" y="252" />
            </Array>
          </mxGeometry>
        </mxCell>
        <mxCell id="Y6NthDMX_8adtIv0fMUY-0" value="Search for &#39;my organisation&#39; details" style="rounded=1;whiteSpace=wrap;html=1;shadow=0;labelBackgroundColor=none;strokeWidth=1;fontFamily=Verdana;fontSize=8;align=center;" parent="wyB5MmASiWUWbdZRvzDF-3" vertex="1">
          <mxGeometry x="260" y="59.99999999999997" width="70" height="37" as="geometry" />
        </mxCell>
        <mxCell id="Y6NthDMX_8adtIv0fMUY-8" style="edgeStyle=orthogonalEdgeStyle;rounded=0;orthogonalLoop=1;jettySize=auto;html=1;exitX=1;exitY=0.5;exitDx=0;exitDy=0;exitPerimeter=0;entryX=0;entryY=0.5;entryDx=0;entryDy=0;" parent="wyB5MmASiWUWbdZRvzDF-3" source="Y6NthDMX_8adtIv0fMUY-2" target="Y6NthDMX_8adtIv0fMUY-0" edge="1">
          <mxGeometry relative="1" as="geometry" />
        </mxCell>
        <mxCell id="Y6NthDMX_8adtIv0fMUY-2" value="How do you want to apply for a divorce?" style="strokeWidth=1;html=1;shape=mxgraph.flowchart.decision;whiteSpace=wrap;rounded=1;shadow=0;labelBackgroundColor=none;fontFamily=Verdana;fontSize=8;align=center;" parent="wyB5MmASiWUWbdZRvzDF-3" vertex="1">
          <mxGeometry x="140" y="53.5" width="80" height="50" as="geometry" />
        </mxCell>
        <mxCell id="Y6NthDMX_8adtIv0fMUY-3" value="Sole" style="text;html=1;strokeColor=none;fillColor=none;align=center;verticalAlign=middle;whiteSpace=wrap;rounded=0;" parent="wyB5MmASiWUWbdZRvzDF-3" vertex="1">
          <mxGeometry x="210" y="53.5" width="40" height="20" as="geometry" />
        </mxCell>
        <mxCell id="Y6NthDMX_8adtIv0fMUY-20" style="edgeStyle=orthogonalEdgeStyle;rounded=0;orthogonalLoop=1;jettySize=auto;html=1;exitX=1;exitY=0.5;exitDx=0;exitDy=0;" parent="wyB5MmASiWUWbdZRvzDF-3" source="Y6NthDMX_8adtIv0fMUY-5" target="Y6NthDMX_8adtIv0fMUY-19" edge="1">
          <mxGeometry relative="1" as="geometry" />
        </mxCell>
        <mxCell id="Y6NthDMX_8adtIv0fMUY-5" value="Applicant details" style="rounded=1;whiteSpace=wrap;html=1;shadow=0;labelBackgroundColor=none;strokeWidth=1;fontFamily=Verdana;fontSize=8;align=center;" parent="wyB5MmASiWUWbdZRvzDF-3" vertex="1">
          <mxGeometry x="480" y="53.5" width="50" height="37" as="geometry" />
        </mxCell>
        <mxCell id="Y6NthDMX_8adtIv0fMUY-13" style="edgeStyle=orthogonalEdgeStyle;rounded=0;orthogonalLoop=1;jettySize=auto;html=1;exitX=0.5;exitY=1;exitDx=0;exitDy=0;exitPerimeter=0;entryX=0.5;entryY=0;entryDx=0;entryDy=0;" parent="wyB5MmASiWUWbdZRvzDF-3" source="Y6NthDMX_8adtIv0fMUY-9" target="Y6NthDMX_8adtIv0fMUY-10" edge="1">
          <mxGeometry relative="1" as="geometry" />
        </mxCell>
        <mxCell id="Y6NthDMX_8adtIv0fMUY-18" style="edgeStyle=orthogonalEdgeStyle;rounded=0;orthogonalLoop=1;jettySize=auto;html=1;exitX=1;exitY=0.5;exitDx=0;exitDy=0;exitPerimeter=0;entryX=0;entryY=0.5;entryDx=0;entryDy=0;" parent="wyB5MmASiWUWbdZRvzDF-3" source="Y6NthDMX_8adtIv0fMUY-9" target="Y6NthDMX_8adtIv0fMUY-5" edge="1">
          <mxGeometry relative="1" as="geometry" />
        </mxCell>
        <mxCell id="Y6NthDMX_8adtIv0fMUY-9" value="Has the marriage broken down?" style="strokeWidth=1;html=1;shape=mxgraph.flowchart.decision;whiteSpace=wrap;rounded=1;shadow=0;labelBackgroundColor=none;fontFamily=Verdana;fontSize=8;align=center;" parent="wyB5MmASiWUWbdZRvzDF-3" vertex="1">
          <mxGeometry x="350" y="47" width="80" height="50" as="geometry" />
        </mxCell>
        <mxCell id="Y6NthDMX_8adtIv0fMUY-10" value="End" style="ellipse;whiteSpace=wrap;html=1;aspect=fixed;" parent="wyB5MmASiWUWbdZRvzDF-3" vertex="1">
          <mxGeometry x="375" y="145" width="30" height="30" as="geometry" />
        </mxCell>
        <mxCell id="Y6NthDMX_8adtIv0fMUY-16" value="No" style="text;html=1;strokeColor=none;fillColor=none;align=center;verticalAlign=middle;whiteSpace=wrap;rounded=0;" parent="wyB5MmASiWUWbdZRvzDF-3" vertex="1">
          <mxGeometry x="350" y="110" width="40" height="20" as="geometry" />
        </mxCell>
        <mxCell id="Y6NthDMX_8adtIv0fMUY-15" value="Yes" style="text;html=1;strokeColor=none;fillColor=none;align=center;verticalAlign=middle;whiteSpace=wrap;rounded=0;" parent="wyB5MmASiWUWbdZRvzDF-3" vertex="1">
          <mxGeometry x="430" y="46.99666666666674" width="40" height="20" as="geometry" />
        </mxCell>
        <mxCell id="Y6NthDMX_8adtIv0fMUY-21" style="edgeStyle=orthogonalEdgeStyle;rounded=0;orthogonalLoop=1;jettySize=auto;html=1;exitX=1;exitY=0.5;exitDx=0;exitDy=0;" parent="wyB5MmASiWUWbdZRvzDF-3" source="Y6NthDMX_8adtIv0fMUY-19" target="wyB5MmASiWUWbdZRvzDF-12" edge="1">
          <mxGeometry relative="1" as="geometry" />
        </mxCell>
        <mxCell id="Y6NthDMX_8adtIv0fMUY-19" value="Respondent details" style="rounded=1;whiteSpace=wrap;html=1;shadow=0;labelBackgroundColor=none;strokeWidth=1;fontFamily=Verdana;fontSize=8;align=center;" parent="wyB5MmASiWUWbdZRvzDF-3" vertex="1">
          <mxGeometry x="560" y="53.5" width="60" height="37" as="geometry" />
        </mxCell>
        <mxCell id="4Gsy31ebdq-OGoGYC07o-1" style="edgeStyle=orthogonalEdgeStyle;rounded=0;orthogonalLoop=1;jettySize=auto;html=1;exitX=1;exitY=0.5;exitDx=0;exitDy=0;" edge="1" parent="wyB5MmASiWUWbdZRvzDF-3" source="Y6NthDMX_8adtIv0fMUY-24" target="Y6NthDMX_8adtIv0fMUY-61">
          <mxGeometry relative="1" as="geometry" />
        </mxCell>
        <mxCell id="Y6NthDMX_8adtIv0fMUY-24" value="Marriage certificate details" style="rounded=1;whiteSpace=wrap;html=1;shadow=0;labelBackgroundColor=none;strokeWidth=1;fontFamily=Verdana;fontSize=8;align=center;" parent="wyB5MmASiWUWbdZRvzDF-3" vertex="1">
          <mxGeometry x="980" y="73.25" width="60" height="37" as="geometry" />
        </mxCell>
        <mxCell id="4Gsy31ebdq-OGoGYC07o-2" style="edgeStyle=orthogonalEdgeStyle;rounded=0;orthogonalLoop=1;jettySize=auto;html=1;exitX=1;exitY=0.5;exitDx=0;exitDy=0;entryX=0;entryY=0.5;entryDx=0;entryDy=0;" edge="1" parent="wyB5MmASiWUWbdZRvzDF-3" source="Y6NthDMX_8adtIv0fMUY-61" target="Y6NthDMX_8adtIv0fMUY-62">
          <mxGeometry relative="1" as="geometry" />
        </mxCell>
        <mxCell id="Y6NthDMX_8adtIv0fMUY-61" value="Jurisdiction details" style="rounded=1;whiteSpace=wrap;html=1;shadow=0;labelBackgroundColor=none;strokeWidth=1;fontFamily=Verdana;fontSize=8;align=center;" parent="wyB5MmASiWUWbdZRvzDF-3" vertex="1">
          <mxGeometry x="1070" y="74.75" width="60" height="37" as="geometry" />
        </mxCell>
        <mxCell id="4Gsy31ebdq-OGoGYC07o-3" style="edgeStyle=orthogonalEdgeStyle;rounded=0;orthogonalLoop=1;jettySize=auto;html=1;exitX=1;exitY=0.5;exitDx=0;exitDy=0;" edge="1" parent="wyB5MmASiWUWbdZRvzDF-3" source="Y6NthDMX_8adtIv0fMUY-62" target="Y6NthDMX_8adtIv0fMUY-63">
          <mxGeometry relative="1" as="geometry" />
        </mxCell>
        <mxCell id="Y6NthDMX_8adtIv0fMUY-62" value="Other legal proceedings" style="rounded=1;whiteSpace=wrap;html=1;shadow=0;labelBackgroundColor=none;strokeWidth=1;fontFamily=Verdana;fontSize=8;align=center;" parent="wyB5MmASiWUWbdZRvzDF-3" vertex="1">
          <mxGeometry x="1158" y="74.75" width="60" height="37" as="geometry" />
        </mxCell>
        <mxCell id="4Gsy31ebdq-OGoGYC07o-4" style="edgeStyle=orthogonalEdgeStyle;rounded=0;orthogonalLoop=1;jettySize=auto;html=1;exitX=1;exitY=0.5;exitDx=0;exitDy=0;" edge="1" parent="wyB5MmASiWUWbdZRvzDF-3" source="Y6NthDMX_8adtIv0fMUY-63" target="Y6NthDMX_8adtIv0fMUY-64">
          <mxGeometry relative="1" as="geometry" />
        </mxCell>
        <mxCell id="Y6NthDMX_8adtIv0fMUY-63" value="Financial Order" style="rounded=1;whiteSpace=wrap;html=1;shadow=0;labelBackgroundColor=none;strokeWidth=1;fontFamily=Verdana;fontSize=8;align=center;" parent="wyB5MmASiWUWbdZRvzDF-3" vertex="1">
          <mxGeometry x="1250" y="74.75" width="50" height="37" as="geometry" />
        </mxCell>
        <mxCell id="4Gsy31ebdq-OGoGYC07o-5" style="edgeStyle=orthogonalEdgeStyle;rounded=0;orthogonalLoop=1;jettySize=auto;html=1;exitX=1;exitY=0.5;exitDx=0;exitDy=0;" edge="1" parent="wyB5MmASiWUWbdZRvzDF-3" source="Y6NthDMX_8adtIv0fMUY-64" target="Y6NthDMX_8adtIv0fMUY-65">
          <mxGeometry relative="1" as="geometry" />
        </mxCell>
        <mxCell id="Y6NthDMX_8adtIv0fMUY-64" value="Upload Docs" style="rounded=1;whiteSpace=wrap;html=1;shadow=0;labelBackgroundColor=none;strokeWidth=1;fontFamily=Verdana;fontSize=8;align=center;" parent="wyB5MmASiWUWbdZRvzDF-3" vertex="1">
          <mxGeometry x="1330" y="74.75" width="50" height="37" as="geometry" />
        </mxCell>
        <mxCell id="4Gsy31ebdq-OGoGYC07o-6" style="edgeStyle=orthogonalEdgeStyle;rounded=0;orthogonalLoop=1;jettySize=auto;html=1;exitX=1;exitY=0.5;exitDx=0;exitDy=0;" edge="1" parent="wyB5MmASiWUWbdZRvzDF-3" source="Y6NthDMX_8adtIv0fMUY-65" target="Y6NthDMX_8adtIv0fMUY-66">
          <mxGeometry relative="1" as="geometry" />
        </mxCell>
        <mxCell id="Y6NthDMX_8adtIv0fMUY-65" value="Welsh Documents required?" style="rounded=1;whiteSpace=wrap;html=1;shadow=0;labelBackgroundColor=none;strokeWidth=1;fontFamily=Verdana;fontSize=8;align=center;" parent="wyB5MmASiWUWbdZRvzDF-3" vertex="1">
          <mxGeometry x="1420" y="74.75" width="50" height="37" as="geometry" />
        </mxCell>
        <mxCell id="4Gsy31ebdq-OGoGYC07o-7" style="edgeStyle=orthogonalEdgeStyle;rounded=0;orthogonalLoop=1;jettySize=auto;html=1;exitX=1;exitY=0.5;exitDx=0;exitDy=0;" edge="1" parent="wyB5MmASiWUWbdZRvzDF-3" source="Y6NthDMX_8adtIv0fMUY-66" target="wyB5MmASiWUWbdZRvzDF-38">
          <mxGeometry relative="1" as="geometry" />
        </mxCell>
        <mxCell id="Y6NthDMX_8adtIv0fMUY-66" value="Check your answers" style="rounded=1;whiteSpace=wrap;html=1;shadow=0;labelBackgroundColor=none;strokeWidth=1;fontFamily=Verdana;fontSize=8;align=center;" parent="wyB5MmASiWUWbdZRvzDF-3" vertex="1">
          <mxGeometry x="1500" y="74.75" width="50" height="37" as="geometry" />
        </mxCell>
        <mxCell id="4Gsy31ebdq-OGoGYC07o-54" value="Yes" style="edgeStyle=orthogonalEdgeStyle;rounded=0;orthogonalLoop=1;jettySize=auto;html=1;exitX=1;exitY=0.5;exitDx=0;exitDy=0;exitPerimeter=0;entryX=0;entryY=0.5;entryDx=0;entryDy=0;" edge="1" parent="wyB5MmASiWUWbdZRvzDF-3" target="4Gsy31ebdq-OGoGYC07o-68">
          <mxGeometry relative="1" as="geometry">
            <mxPoint x="720" y="271.75" as="sourcePoint" />
          </mxGeometry>
        </mxCell>
        <mxCell id="4Gsy31ebdq-OGoGYC07o-55" value="Is the &lt;br&gt;respondent represented?" style="strokeWidth=1;html=1;shape=mxgraph.flowchart.decision;whiteSpace=wrap;rounded=1;shadow=0;labelBackgroundColor=none;fontFamily=Verdana;fontSize=8;align=center;" vertex="1" parent="wyB5MmASiWUWbdZRvzDF-3">
          <mxGeometry x="650" y="248.25" width="80" height="50" as="geometry" />
        </mxCell>
        <mxCell id="4Gsy31ebdq-OGoGYC07o-57" value="Enter respondent details" style="rounded=1;whiteSpace=wrap;html=1;shadow=0;labelBackgroundColor=none;strokeWidth=1;fontFamily=Verdana;fontSize=8;align=center;" vertex="1" parent="wyB5MmASiWUWbdZRvzDF-3">
          <mxGeometry x="880" y="253.25" width="70" height="37" as="geometry" />
        </mxCell>
        <mxCell id="4Gsy31ebdq-OGoGYC07o-59" value="&lt;b&gt;Draft application created&lt;/b&gt;&lt;br&gt;Event:&amp;nbsp;&lt;span&gt;	&lt;/span&gt;Apply for a divorce&lt;br&gt;State: draft" style="rounded=1;whiteSpace=wrap;html=1;shadow=0;labelBackgroundColor=none;strokeWidth=1;fontFamily=Verdana;fontSize=8;align=center;" vertex="1" parent="wyB5MmASiWUWbdZRvzDF-3">
          <mxGeometry x="1580" y="220" width="90" height="70" as="geometry" />
        </mxCell>
        <mxCell id="4Gsy31ebdq-OGoGYC07o-61" value="&lt;b&gt;Start event:&lt;/b&gt;&lt;br&gt;&amp;nbsp;Case submission" style="rounded=1;whiteSpace=wrap;html=1;shadow=0;labelBackgroundColor=none;strokeWidth=1;fontFamily=Verdana;fontSize=8;align=center;" vertex="1" parent="wyB5MmASiWUWbdZRvzDF-3">
          <mxGeometry x="1710" y="224.25" width="70" height="70" as="geometry" />
        </mxCell>
        <mxCell id="4Gsy31ebdq-OGoGYC07o-58" style="edgeStyle=orthogonalEdgeStyle;rounded=0;orthogonalLoop=1;jettySize=auto;html=1;exitX=1;exitY=0.5;exitDx=0;exitDy=0;entryX=0;entryY=0.5;entryDx=0;entryDy=0;" edge="1" parent="wyB5MmASiWUWbdZRvzDF-3" source="4Gsy31ebdq-OGoGYC07o-59" target="4Gsy31ebdq-OGoGYC07o-61">
          <mxGeometry relative="1" as="geometry">
            <mxPoint x="1740.0000000000002" y="195" as="targetPoint" />
          </mxGeometry>
        </mxCell>
        <mxCell id="4Gsy31ebdq-OGoGYC07o-63" value="&lt;span&gt;Confirm SOT and reconciliation&lt;/span&gt;" style="rounded=1;whiteSpace=wrap;html=1;shadow=0;labelBackgroundColor=none;strokeWidth=1;fontFamily=Verdana;fontSize=8;align=center;fontStyle=0" vertex="1" parent="wyB5MmASiWUWbdZRvzDF-3">
          <mxGeometry x="1820" y="247" width="70" height="37" as="geometry" />
        </mxCell>
        <mxCell id="4Gsy31ebdq-OGoGYC07o-60" style="edgeStyle=orthogonalEdgeStyle;rounded=0;orthogonalLoop=1;jettySize=auto;html=1;entryX=0;entryY=0.25;entryDx=0;entryDy=0;" edge="1" parent="wyB5MmASiWUWbdZRvzDF-3" source="4Gsy31ebdq-OGoGYC07o-61" target="4Gsy31ebdq-OGoGYC07o-63">
          <mxGeometry relative="1" as="geometry" />
        </mxCell>
        <mxCell id="4Gsy31ebdq-OGoGYC07o-65" value="&lt;span&gt;Enter &#39;your name&#39; and &#39;name of firm&#39;&lt;/span&gt;" style="rounded=1;whiteSpace=wrap;html=1;shadow=0;labelBackgroundColor=none;strokeWidth=1;fontFamily=Verdana;fontSize=8;align=center;fontStyle=0" vertex="1" parent="wyB5MmASiWUWbdZRvzDF-3">
          <mxGeometry x="1930" y="247" width="70" height="37" as="geometry" />
        </mxCell>
        <mxCell id="4Gsy31ebdq-OGoGYC07o-62" style="edgeStyle=orthogonalEdgeStyle;rounded=0;orthogonalLoop=1;jettySize=auto;html=1;exitX=1;exitY=0.5;exitDx=0;exitDy=0;entryX=0;entryY=0.5;entryDx=0;entryDy=0;" edge="1" parent="wyB5MmASiWUWbdZRvzDF-3" source="4Gsy31ebdq-OGoGYC07o-63" target="4Gsy31ebdq-OGoGYC07o-65">
          <mxGeometry relative="1" as="geometry" />
        </mxCell>
        <mxCell id="4Gsy31ebdq-OGoGYC07o-66" value="&lt;b&gt;Finish event:&lt;/b&gt;&lt;br&gt;&amp;nbsp; Case submission&lt;br&gt;&lt;b&gt;To state:&lt;/b&gt;&amp;nbsp;Submitted" style="rounded=1;whiteSpace=wrap;html=1;shadow=0;labelBackgroundColor=none;strokeWidth=1;fontFamily=Verdana;fontSize=8;align=center;" vertex="1" parent="wyB5MmASiWUWbdZRvzDF-3">
          <mxGeometry x="2050" y="230.5" width="70" height="70" as="geometry" />
        </mxCell>
        <mxCell id="4Gsy31ebdq-OGoGYC07o-64" style="edgeStyle=orthogonalEdgeStyle;rounded=0;orthogonalLoop=1;jettySize=auto;html=1;exitX=1;exitY=0.5;exitDx=0;exitDy=0;entryX=0;entryY=0.5;entryDx=0;entryDy=0;" edge="1" parent="wyB5MmASiWUWbdZRvzDF-3" source="4Gsy31ebdq-OGoGYC07o-65" target="4Gsy31ebdq-OGoGYC07o-66">
          <mxGeometry relative="1" as="geometry" />
        </mxCell>
        <mxCell id="4Gsy31ebdq-OGoGYC07o-67" style="edgeStyle=orthogonalEdgeStyle;rounded=0;orthogonalLoop=1;jettySize=auto;html=1;exitX=1;exitY=0.5;exitDx=0;exitDy=0;entryX=0;entryY=0.5;entryDx=0;entryDy=0;" edge="1" parent="wyB5MmASiWUWbdZRvzDF-3" source="4Gsy31ebdq-OGoGYC07o-68">
          <mxGeometry relative="1" as="geometry">
            <mxPoint x="880" y="271.75" as="targetPoint" />
          </mxGeometry>
        </mxCell>
        <mxCell id="4Gsy31ebdq-OGoGYC07o-68" value="Enter respondent solicitor details" style="rounded=1;whiteSpace=wrap;html=1;shadow=0;labelBackgroundColor=none;strokeWidth=1;fontFamily=Verdana;fontSize=8;align=center;" vertex="1" parent="wyB5MmASiWUWbdZRvzDF-3">
          <mxGeometry x="770" y="253.25" width="70" height="37" as="geometry" />
        </mxCell>
        <mxCell id="4Gsy31ebdq-OGoGYC07o-70" value="Applicant details" style="rounded=1;whiteSpace=wrap;html=1;shadow=0;labelBackgroundColor=none;strokeWidth=1;fontFamily=Verdana;fontSize=8;align=center;" vertex="1" parent="wyB5MmASiWUWbdZRvzDF-3">
          <mxGeometry x="480" y="233.5" width="50" height="37" as="geometry" />
        </mxCell>
        <mxCell id="4Gsy31ebdq-OGoGYC07o-72" style="edgeStyle=orthogonalEdgeStyle;rounded=0;orthogonalLoop=1;jettySize=auto;html=1;exitX=1;exitY=0.5;exitDx=0;exitDy=0;exitPerimeter=0;entryX=0;entryY=0.5;entryDx=0;entryDy=0;" edge="1" parent="wyB5MmASiWUWbdZRvzDF-3" source="4Gsy31ebdq-OGoGYC07o-73" target="4Gsy31ebdq-OGoGYC07o-70">
          <mxGeometry relative="1" as="geometry" />
        </mxCell>
        <mxCell id="4Gsy31ebdq-OGoGYC07o-73" value="Has the marriage broken down?" style="strokeWidth=1;html=1;shape=mxgraph.flowchart.decision;whiteSpace=wrap;rounded=1;shadow=0;labelBackgroundColor=none;fontFamily=Verdana;fontSize=8;align=center;" vertex="1" parent="wyB5MmASiWUWbdZRvzDF-3">
          <mxGeometry x="350" y="227" width="80" height="50" as="geometry" />
        </mxCell>
        <mxCell id="4Gsy31ebdq-OGoGYC07o-74" value="End" style="ellipse;whiteSpace=wrap;html=1;aspect=fixed;" vertex="1" parent="wyB5MmASiWUWbdZRvzDF-3">
          <mxGeometry x="375" y="325" width="30" height="30" as="geometry" />
        </mxCell>
        <mxCell id="4Gsy31ebdq-OGoGYC07o-71" style="edgeStyle=orthogonalEdgeStyle;rounded=0;orthogonalLoop=1;jettySize=auto;html=1;exitX=0.5;exitY=1;exitDx=0;exitDy=0;exitPerimeter=0;entryX=0.5;entryY=0;entryDx=0;entryDy=0;" edge="1" parent="wyB5MmASiWUWbdZRvzDF-3" source="4Gsy31ebdq-OGoGYC07o-73" target="4Gsy31ebdq-OGoGYC07o-74">
          <mxGeometry relative="1" as="geometry" />
        </mxCell>
        <mxCell id="4Gsy31ebdq-OGoGYC07o-75" value="No" style="text;html=1;strokeColor=none;fillColor=none;align=center;verticalAlign=middle;whiteSpace=wrap;rounded=0;" vertex="1" parent="wyB5MmASiWUWbdZRvzDF-3">
          <mxGeometry x="350" y="290" width="40" height="20" as="geometry" />
        </mxCell>
        <mxCell id="4Gsy31ebdq-OGoGYC07o-76" value="Yes" style="text;html=1;strokeColor=none;fillColor=none;align=center;verticalAlign=middle;whiteSpace=wrap;rounded=0;" vertex="1" parent="wyB5MmASiWUWbdZRvzDF-3">
          <mxGeometry x="430" y="226.99666666666673" width="40" height="20" as="geometry" />
        </mxCell>
        <mxCell id="4Gsy31ebdq-OGoGYC07o-77" style="edgeStyle=orthogonalEdgeStyle;rounded=0;orthogonalLoop=1;jettySize=auto;html=1;exitX=1;exitY=0.5;exitDx=0;exitDy=0;" edge="1" parent="wyB5MmASiWUWbdZRvzDF-3" source="4Gsy31ebdq-OGoGYC07o-78" target="4Gsy31ebdq-OGoGYC07o-55">
          <mxGeometry relative="1" as="geometry" />
        </mxCell>
        <mxCell id="4Gsy31ebdq-OGoGYC07o-78" value="Respondent details" style="rounded=1;whiteSpace=wrap;html=1;shadow=0;labelBackgroundColor=none;strokeWidth=1;fontFamily=Verdana;fontSize=8;align=center;" vertex="1" parent="wyB5MmASiWUWbdZRvzDF-3">
          <mxGeometry x="560" y="233.5" width="60" height="37" as="geometry" />
        </mxCell>
        <mxCell id="4Gsy31ebdq-OGoGYC07o-69" style="edgeStyle=orthogonalEdgeStyle;rounded=0;orthogonalLoop=1;jettySize=auto;html=1;exitX=1;exitY=0.5;exitDx=0;exitDy=0;" edge="1" parent="wyB5MmASiWUWbdZRvzDF-3" source="4Gsy31ebdq-OGoGYC07o-70" target="4Gsy31ebdq-OGoGYC07o-78">
          <mxGeometry relative="1" as="geometry" />
        </mxCell>
        <mxCell id="4Gsy31ebdq-OGoGYC07o-80" value="Marriage certificate details" style="rounded=1;whiteSpace=wrap;html=1;shadow=0;labelBackgroundColor=none;strokeWidth=1;fontFamily=Verdana;fontSize=8;align=center;" vertex="1" parent="wyB5MmASiWUWbdZRvzDF-3">
          <mxGeometry x="980" y="253.25" width="60" height="37" as="geometry" />
        </mxCell>
        <mxCell id="4Gsy31ebdq-OGoGYC07o-56" style="edgeStyle=orthogonalEdgeStyle;rounded=0;orthogonalLoop=1;jettySize=auto;html=1;exitX=1;exitY=0.5;exitDx=0;exitDy=0;entryX=0;entryY=0.5;entryDx=0;entryDy=0;" edge="1" parent="wyB5MmASiWUWbdZRvzDF-3" source="4Gsy31ebdq-OGoGYC07o-57" target="4Gsy31ebdq-OGoGYC07o-80">
          <mxGeometry relative="1" as="geometry" />
        </mxCell>
        <mxCell id="4Gsy31ebdq-OGoGYC07o-82" value="Jurisdiction details" style="rounded=1;whiteSpace=wrap;html=1;shadow=0;labelBackgroundColor=none;strokeWidth=1;fontFamily=Verdana;fontSize=8;align=center;" vertex="1" parent="wyB5MmASiWUWbdZRvzDF-3">
          <mxGeometry x="1070" y="254.75" width="60" height="37" as="geometry" />
        </mxCell>
        <mxCell id="4Gsy31ebdq-OGoGYC07o-79" style="edgeStyle=orthogonalEdgeStyle;rounded=0;orthogonalLoop=1;jettySize=auto;html=1;exitX=1;exitY=0.5;exitDx=0;exitDy=0;" edge="1" parent="wyB5MmASiWUWbdZRvzDF-3" source="4Gsy31ebdq-OGoGYC07o-80" target="4Gsy31ebdq-OGoGYC07o-82">
          <mxGeometry relative="1" as="geometry" />
        </mxCell>
        <mxCell id="4Gsy31ebdq-OGoGYC07o-84" value="Other legal proceedings" style="rounded=1;whiteSpace=wrap;html=1;shadow=0;labelBackgroundColor=none;strokeWidth=1;fontFamily=Verdana;fontSize=8;align=center;" vertex="1" parent="wyB5MmASiWUWbdZRvzDF-3">
          <mxGeometry x="1158" y="254.75" width="60" height="37" as="geometry" />
        </mxCell>
        <mxCell id="4Gsy31ebdq-OGoGYC07o-81" style="edgeStyle=orthogonalEdgeStyle;rounded=0;orthogonalLoop=1;jettySize=auto;html=1;exitX=1;exitY=0.5;exitDx=0;exitDy=0;entryX=0;entryY=0.5;entryDx=0;entryDy=0;" edge="1" parent="wyB5MmASiWUWbdZRvzDF-3" source="4Gsy31ebdq-OGoGYC07o-82" target="4Gsy31ebdq-OGoGYC07o-84">
          <mxGeometry relative="1" as="geometry" />
        </mxCell>
        <mxCell id="4Gsy31ebdq-OGoGYC07o-86" value="Financial Order" style="rounded=1;whiteSpace=wrap;html=1;shadow=0;labelBackgroundColor=none;strokeWidth=1;fontFamily=Verdana;fontSize=8;align=center;" vertex="1" parent="wyB5MmASiWUWbdZRvzDF-3">
          <mxGeometry x="1250" y="254.75" width="50" height="37" as="geometry" />
        </mxCell>
        <mxCell id="4Gsy31ebdq-OGoGYC07o-83" style="edgeStyle=orthogonalEdgeStyle;rounded=0;orthogonalLoop=1;jettySize=auto;html=1;exitX=1;exitY=0.5;exitDx=0;exitDy=0;" edge="1" parent="wyB5MmASiWUWbdZRvzDF-3" source="4Gsy31ebdq-OGoGYC07o-84" target="4Gsy31ebdq-OGoGYC07o-86">
          <mxGeometry relative="1" as="geometry" />
        </mxCell>
        <mxCell id="4Gsy31ebdq-OGoGYC07o-88" value="Upload Docs" style="rounded=1;whiteSpace=wrap;html=1;shadow=0;labelBackgroundColor=none;strokeWidth=1;fontFamily=Verdana;fontSize=8;align=center;" vertex="1" parent="wyB5MmASiWUWbdZRvzDF-3">
          <mxGeometry x="1330" y="254.75" width="50" height="37" as="geometry" />
        </mxCell>
        <mxCell id="4Gsy31ebdq-OGoGYC07o-85" style="edgeStyle=orthogonalEdgeStyle;rounded=0;orthogonalLoop=1;jettySize=auto;html=1;exitX=1;exitY=0.5;exitDx=0;exitDy=0;" edge="1" parent="wyB5MmASiWUWbdZRvzDF-3" source="4Gsy31ebdq-OGoGYC07o-86" target="4Gsy31ebdq-OGoGYC07o-88">
          <mxGeometry relative="1" as="geometry" />
        </mxCell>
        <mxCell id="4Gsy31ebdq-OGoGYC07o-90" value="Welsh Documents required?" style="rounded=1;whiteSpace=wrap;html=1;shadow=0;labelBackgroundColor=none;strokeWidth=1;fontFamily=Verdana;fontSize=8;align=center;" vertex="1" parent="wyB5MmASiWUWbdZRvzDF-3">
          <mxGeometry x="1420" y="254.75" width="50" height="37" as="geometry" />
        </mxCell>
        <mxCell id="4Gsy31ebdq-OGoGYC07o-87" style="edgeStyle=orthogonalEdgeStyle;rounded=0;orthogonalLoop=1;jettySize=auto;html=1;exitX=1;exitY=0.5;exitDx=0;exitDy=0;" edge="1" parent="wyB5MmASiWUWbdZRvzDF-3" source="4Gsy31ebdq-OGoGYC07o-88" target="4Gsy31ebdq-OGoGYC07o-90">
          <mxGeometry relative="1" as="geometry" />
        </mxCell>
        <mxCell id="4Gsy31ebdq-OGoGYC07o-91" style="edgeStyle=orthogonalEdgeStyle;rounded=0;orthogonalLoop=1;jettySize=auto;html=1;exitX=1;exitY=0.5;exitDx=0;exitDy=0;" edge="1" parent="wyB5MmASiWUWbdZRvzDF-3" source="4Gsy31ebdq-OGoGYC07o-92" target="4Gsy31ebdq-OGoGYC07o-59">
          <mxGeometry relative="1" as="geometry" />
        </mxCell>
        <mxCell id="4Gsy31ebdq-OGoGYC07o-92" value="Check your answers" style="rounded=1;whiteSpace=wrap;html=1;shadow=0;labelBackgroundColor=none;strokeWidth=1;fontFamily=Verdana;fontSize=8;align=center;" vertex="1" parent="wyB5MmASiWUWbdZRvzDF-3">
          <mxGeometry x="1500" y="254.75" width="50" height="37" as="geometry" />
        </mxCell>
        <mxCell id="4Gsy31ebdq-OGoGYC07o-89" style="edgeStyle=orthogonalEdgeStyle;rounded=0;orthogonalLoop=1;jettySize=auto;html=1;exitX=1;exitY=0.5;exitDx=0;exitDy=0;" edge="1" parent="wyB5MmASiWUWbdZRvzDF-3" source="4Gsy31ebdq-OGoGYC07o-90" target="4Gsy31ebdq-OGoGYC07o-92">
          <mxGeometry relative="1" as="geometry" />
        </mxCell>
        <mxCell id="4Gsy31ebdq-OGoGYC07o-93" style="edgeStyle=orthogonalEdgeStyle;rounded=0;orthogonalLoop=1;jettySize=auto;html=1;" edge="1" parent="wyB5MmASiWUWbdZRvzDF-3" source="4Gsy31ebdq-OGoGYC07o-55">
          <mxGeometry relative="1" as="geometry">
            <mxPoint x="920" y="250" as="targetPoint" />
            <Array as="points">
              <mxPoint x="690" y="220" />
              <mxPoint x="920" y="220" />
            </Array>
          </mxGeometry>
        </mxCell>
        <mxCell id="4Gsy31ebdq-OGoGYC07o-95" value="Joint" style="text;html=1;strokeColor=none;fillColor=none;align=center;verticalAlign=middle;whiteSpace=wrap;rounded=0;" vertex="1" parent="wyB5MmASiWUWbdZRvzDF-3">
          <mxGeometry x="250" y="190" width="70" height="20" as="geometry" />
        </mxCell>
        <mxCell id="wyB5MmASiWUWbdZRvzDF-62" value="Caseworker" style="swimlane;html=1;startSize=40;horizontal=0;" parent="wyB5MmASiWUWbdZRvzDF-2" vertex="1">
          <mxGeometry y="440" width="2260" height="170" as="geometry" />
        </mxCell>
        <mxCell id="wyB5MmASiWUWbdZRvzDF-63" style="edgeStyle=orthogonalEdgeStyle;rounded=0;orthogonalLoop=1;jettySize=auto;html=1;exitX=1;exitY=0.5;exitDx=0;exitDy=0;entryX=0;entryY=0.5;entryDx=0;entryDy=0;entryPerimeter=0;startArrow=none;" parent="wyB5MmASiWUWbdZRvzDF-62" source="4Gsy31ebdq-OGoGYC07o-97" target="wyB5MmASiWUWbdZRvzDF-69" edge="1">
          <mxGeometry relative="1" as="geometry" />
        </mxCell>
        <mxCell id="wyB5MmASiWUWbdZRvzDF-64" value="Event:&lt;br&gt;Issue&amp;nbsp;" style="rounded=1;whiteSpace=wrap;html=1;shadow=0;labelBackgroundColor=none;strokeWidth=1;fontFamily=Verdana;fontSize=8;align=center;" parent="wyB5MmASiWUWbdZRvzDF-62" vertex="1">
          <mxGeometry x="60" y="20" width="70" height="40" as="geometry" />
        </mxCell>
        <mxCell id="wyB5MmASiWUWbdZRvzDF-65" style="edgeStyle=orthogonalEdgeStyle;rounded=0;orthogonalLoop=1;jettySize=auto;html=1;exitX=1;exitY=0.5;exitDx=0;exitDy=0;exitPerimeter=0;entryX=0;entryY=0.5;entryDx=0;entryDy=0;" parent="wyB5MmASiWUWbdZRvzDF-62" source="wyB5MmASiWUWbdZRvzDF-69" target="wyB5MmASiWUWbdZRvzDF-71" edge="1">
          <mxGeometry relative="1" as="geometry">
            <mxPoint x="460" y="39" as="targetPoint" />
            <Array as="points">
              <mxPoint x="460" y="40" />
              <mxPoint x="460" y="40" />
            </Array>
          </mxGeometry>
        </mxCell>
        <mxCell id="wyB5MmASiWUWbdZRvzDF-66" value="Court&lt;br&gt;&amp;nbsp;service" style="edgeLabel;html=1;align=center;verticalAlign=middle;resizable=0;points=[];" parent="wyB5MmASiWUWbdZRvzDF-65" vertex="1" connectable="0">
          <mxGeometry x="-0.5619" y="-4" relative="1" as="geometry">
            <mxPoint x="5" y="-4" as="offset" />
          </mxGeometry>
        </mxCell>
        <mxCell id="wyB5MmASiWUWbdZRvzDF-67" style="edgeStyle=orthogonalEdgeStyle;rounded=0;orthogonalLoop=1;jettySize=auto;html=1;exitX=0.5;exitY=1;exitDx=0;exitDy=0;exitPerimeter=0;entryX=0;entryY=0.5;entryDx=0;entryDy=0;" parent="wyB5MmASiWUWbdZRvzDF-62" source="wyB5MmASiWUWbdZRvzDF-69" target="wyB5MmASiWUWbdZRvzDF-73" edge="1">
          <mxGeometry relative="1" as="geometry" />
        </mxCell>
        <mxCell id="wyB5MmASiWUWbdZRvzDF-68" value="Personal &lt;br&gt;service" style="edgeLabel;html=1;align=center;verticalAlign=middle;resizable=0;points=[];" parent="wyB5MmASiWUWbdZRvzDF-67" vertex="1" connectable="0">
          <mxGeometry x="-0.1232" y="1" relative="1" as="geometry">
            <mxPoint as="offset" />
          </mxGeometry>
        </mxCell>
        <mxCell id="wyB5MmASiWUWbdZRvzDF-69" value="What &lt;br&gt;service type did solicitor &lt;br&gt;request?" style="strokeWidth=1;html=1;shape=mxgraph.flowchart.decision;whiteSpace=wrap;rounded=1;shadow=0;labelBackgroundColor=none;fontFamily=Verdana;fontSize=8;align=center;" parent="wyB5MmASiWUWbdZRvzDF-62" vertex="1">
          <mxGeometry x="360" y="15" width="80" height="50" as="geometry" />
        </mxCell>
        <mxCell id="wyB5MmASiWUWbdZRvzDF-70" style="edgeStyle=orthogonalEdgeStyle;rounded=0;orthogonalLoop=1;jettySize=auto;html=1;exitX=1;exitY=0.5;exitDx=0;exitDy=0;" parent="wyB5MmASiWUWbdZRvzDF-62" source="wyB5MmASiWUWbdZRvzDF-71" target="wyB5MmASiWUWbdZRvzDF-77" edge="1">
          <mxGeometry relative="1" as="geometry">
            <Array as="points">
              <mxPoint x="590" y="40" />
              <mxPoint x="590" y="39" />
              <mxPoint x="735" y="39" />
            </Array>
          </mxGeometry>
        </mxCell>
        <mxCell id="wyB5MmASiWUWbdZRvzDF-71" value="&lt;b&gt;Event:&lt;/b&gt;&lt;br&gt;&amp;nbsp;Issue AOS pack to respondent&amp;nbsp;&amp;nbsp;" style="rounded=1;whiteSpace=wrap;html=1;shadow=0;labelBackgroundColor=none;strokeWidth=1;fontFamily=Verdana;fontSize=8;align=center;" parent="wyB5MmASiWUWbdZRvzDF-62" vertex="1">
          <mxGeometry x="510" y="21.5" width="70" height="37" as="geometry" />
        </mxCell>
        <mxCell id="wyB5MmASiWUWbdZRvzDF-72" style="edgeStyle=orthogonalEdgeStyle;rounded=0;orthogonalLoop=1;jettySize=auto;html=1;exitX=1;exitY=0.5;exitDx=0;exitDy=0;" parent="wyB5MmASiWUWbdZRvzDF-62" source="wyB5MmASiWUWbdZRvzDF-73" target="wyB5MmASiWUWbdZRvzDF-75" edge="1">
          <mxGeometry relative="1" as="geometry" />
        </mxCell>
        <mxCell id="wyB5MmASiWUWbdZRvzDF-73" value="&lt;b&gt;Event:&lt;/b&gt;&lt;br&gt;&amp;nbsp;Issue Personal Service Pack&lt;br&gt;&lt;b&gt;to state: &lt;/b&gt;Awaiting Service" style="rounded=1;whiteSpace=wrap;html=1;shadow=0;labelBackgroundColor=none;strokeWidth=1;fontFamily=Verdana;fontSize=8;align=center;" parent="wyB5MmASiWUWbdZRvzDF-62" vertex="1">
          <mxGeometry x="510" y="83" width="70" height="47" as="geometry" />
        </mxCell>
        <mxCell id="wyB5MmASiWUWbdZRvzDF-74" style="edgeStyle=orthogonalEdgeStyle;rounded=0;orthogonalLoop=1;jettySize=auto;html=1;exitX=1;exitY=0.5;exitDx=0;exitDy=0;entryX=0;entryY=0.5;entryDx=0;entryDy=0;" parent="wyB5MmASiWUWbdZRvzDF-62" source="wyB5MmASiWUWbdZRvzDF-75" target="wyB5MmASiWUWbdZRvzDF-77" edge="1">
          <mxGeometry relative="1" as="geometry" />
        </mxCell>
        <mxCell id="wyB5MmASiWUWbdZRvzDF-75" value="&lt;b&gt;Event:&lt;/b&gt;&lt;br&gt;&amp;nbsp;Confirm service" style="rounded=1;whiteSpace=wrap;html=1;shadow=0;labelBackgroundColor=none;strokeWidth=1;fontFamily=Verdana;fontSize=8;align=center;" parent="wyB5MmASiWUWbdZRvzDF-62" vertex="1">
          <mxGeometry x="610" y="88" width="70" height="37" as="geometry" />
        </mxCell>
        <mxCell id="wyB5MmASiWUWbdZRvzDF-77" value="&lt;b&gt;State:&lt;/b&gt;&lt;br&gt;&amp;nbsp;Awaiting AOS" style="rounded=1;whiteSpace=wrap;html=1;shadow=0;labelBackgroundColor=none;strokeWidth=1;fontFamily=Verdana;fontSize=8;align=center;" parent="wyB5MmASiWUWbdZRvzDF-62" vertex="1">
          <mxGeometry x="720" y="88" width="70" height="37" as="geometry" />
        </mxCell>
        <mxCell id="wyB5MmASiWUWbdZRvzDF-78" value="&lt;h6&gt;&lt;span style=&quot;font-size: 8px ; font-weight: 400&quot;&gt;If respondent solicitor it digital then Notice of Proceedings email sent. If respondent solicitor is paper then paper AOS pack is sent&lt;/span&gt;&lt;/h6&gt;" style="shape=note;whiteSpace=wrap;html=1;backgroundOutline=1;darkOpacity=0.05;size=12;fillColor=#FFFFCC;spacingRight=10;" parent="wyB5MmASiWUWbdZRvzDF-62" vertex="1">
          <mxGeometry x="610" y="21.5" width="110" height="58.5" as="geometry" />
        </mxCell>
        <mxCell id="c1NY_56T70xuO1JxPN3--15" value="&lt;h6&gt;&lt;span style=&quot;font-size: 8px ; font-weight: 400&quot;&gt;If respondent solicitor it digital then no AOS cover letter is generated. If respondent is paper then paper AOS pack is generated&lt;/span&gt;&lt;/h6&gt;" style="shape=note;whiteSpace=wrap;html=1;backgroundOutline=1;darkOpacity=0.05;size=12;fillColor=#FFFFCC;spacingRight=10;" parent="wyB5MmASiWUWbdZRvzDF-62" vertex="1">
          <mxGeometry x="60" y="71.5" width="110" height="58.5" as="geometry" />
        </mxCell>
        <mxCell id="4Gsy31ebdq-OGoGYC07o-96" value="20 week holding time starts" style="text;html=1;strokeColor=none;fillColor=none;align=center;verticalAlign=middle;whiteSpace=wrap;rounded=0;" vertex="1" parent="wyB5MmASiWUWbdZRvzDF-62">
          <mxGeometry x="890" y="38.5" width="140" height="20" as="geometry" />
        </mxCell>
        <mxCell id="4Gsy31ebdq-OGoGYC07o-97" value="Enter in details" style="rounded=1;whiteSpace=wrap;html=1;shadow=0;labelBackgroundColor=none;strokeWidth=1;fontFamily=Verdana;fontSize=8;align=center;" vertex="1" parent="wyB5MmASiWUWbdZRvzDF-62">
          <mxGeometry x="195" y="21.5" width="70" height="40" as="geometry" />
        </mxCell>
        <mxCell id="4Gsy31ebdq-OGoGYC07o-98" value="" style="edgeStyle=orthogonalEdgeStyle;rounded=0;orthogonalLoop=1;jettySize=auto;html=1;exitX=1;exitY=0.5;exitDx=0;exitDy=0;entryX=0;entryY=0.5;entryDx=0;entryDy=0;entryPerimeter=0;endArrow=none;" edge="1" parent="wyB5MmASiWUWbdZRvzDF-62" source="wyB5MmASiWUWbdZRvzDF-64" target="4Gsy31ebdq-OGoGYC07o-97">
          <mxGeometry relative="1" as="geometry">
            <mxPoint x="140" y="540" as="sourcePoint" />
            <mxPoint x="370" y="540" as="targetPoint" />
          </mxGeometry>
        </mxCell>
        <mxCell id="wyB5MmASiWUWbdZRvzDF-82" value="Respondent &lt;br&gt;Organisation &lt;br&gt;Administrator&amp;nbsp;" style="swimlane;html=1;startSize=40;horizontal=0;" parent="wyB5MmASiWUWbdZRvzDF-2" vertex="1">
          <mxGeometry y="610" width="2260" height="126.5" as="geometry" />
        </mxCell>
        <mxCell id="wyB5MmASiWUWbdZRvzDF-83" style="edgeStyle=orthogonalEdgeStyle;rounded=0;orthogonalLoop=1;jettySize=auto;html=1;exitX=1;exitY=0.5;exitDx=0;exitDy=0;entryX=0;entryY=0.5;entryDx=0;entryDy=0;" parent="wyB5MmASiWUWbdZRvzDF-82" source="wyB5MmASiWUWbdZRvzDF-84" target="wyB5MmASiWUWbdZRvzDF-87" edge="1">
          <mxGeometry relative="1" as="geometry" />
        </mxCell>
        <mxCell id="wyB5MmASiWUWbdZRvzDF-84" value="Navigate to unassigned cases" style="rounded=1;whiteSpace=wrap;html=1;shadow=0;labelBackgroundColor=none;strokeWidth=1;fontFamily=Verdana;fontSize=8;align=center;" parent="wyB5MmASiWUWbdZRvzDF-82" vertex="1">
          <mxGeometry x="610" y="23.00000000000003" width="70" height="37" as="geometry" />
        </mxCell>
        <mxCell id="wyB5MmASiWUWbdZRvzDF-87" value="Assign case to solicitor(s) in my firm" style="rounded=1;whiteSpace=wrap;html=1;shadow=0;labelBackgroundColor=none;strokeWidth=1;fontFamily=Verdana;fontSize=8;align=center;" parent="wyB5MmASiWUWbdZRvzDF-82" vertex="1">
          <mxGeometry x="700" y="23" width="70" height="37" as="geometry" />
        </mxCell>
        <mxCell id="wyB5MmASiWUWbdZRvzDF-88" style="edgeStyle=orthogonalEdgeStyle;rounded=0;orthogonalLoop=1;jettySize=auto;html=1;exitX=1;exitY=0.5;exitDx=0;exitDy=0;entryX=0;entryY=0.5;entryDx=0;entryDy=0;" parent="wyB5MmASiWUWbdZRvzDF-2" source="wyB5MmASiWUWbdZRvzDF-77" target="wyB5MmASiWUWbdZRvzDF-84" edge="1">
          <mxGeometry relative="1" as="geometry">
            <Array as="points">
              <mxPoint x="580" y="480" />
              <mxPoint x="610" y="480" />
            </Array>
          </mxGeometry>
        </mxCell>
        <mxCell id="wyB5MmASiWUWbdZRvzDF-89" style="edgeStyle=orthogonalEdgeStyle;rounded=0;orthogonalLoop=1;jettySize=auto;html=1;exitX=0.5;exitY=1;exitDx=0;exitDy=0;entryX=0.5;entryY=0;entryDx=0;entryDy=0;" parent="wyB5MmASiWUWbdZRvzDF-2" source="wyB5MmASiWUWbdZRvzDF-47" target="wyB5MmASiWUWbdZRvzDF-64" edge="1">
          <mxGeometry relative="1" as="geometry">
            <Array as="points">
              <mxPoint x="2085" y="410" />
              <mxPoint x="95" y="410" />
            </Array>
          </mxGeometry>
        </mxCell>
        <mxCell id="c1NY_56T70xuO1JxPN3--21" style="edgeStyle=orthogonalEdgeStyle;rounded=0;orthogonalLoop=1;jettySize=auto;html=1;exitX=0.5;exitY=1;exitDx=0;exitDy=0;entryX=0.5;entryY=0;entryDx=0;entryDy=0;" parent="wyB5MmASiWUWbdZRvzDF-2" source="wyB5MmASiWUWbdZRvzDF-87" target="wyB5MmASiWUWbdZRvzDF-92" edge="1">
          <mxGeometry relative="1" as="geometry" />
        </mxCell>
        <mxCell id="wyB5MmASiWUWbdZRvzDF-90" value="Respondent solicitor(s)" style="swimlane;html=1;startSize=40;horizontal=0;" parent="wyB5MmASiWUWbdZRvzDF-2" vertex="1">
          <mxGeometry y="736.5" width="2260" height="160" as="geometry" />
        </mxCell>
        <mxCell id="c1NY_56T70xuO1JxPN3--16" style="edgeStyle=orthogonalEdgeStyle;rounded=0;orthogonalLoop=1;jettySize=auto;html=1;exitX=1;exitY=0.5;exitDx=0;exitDy=0;entryX=0;entryY=0.5;entryDx=0;entryDy=0;" parent="wyB5MmASiWUWbdZRvzDF-90" source="wyB5MmASiWUWbdZRvzDF-92" target="wyB5MmASiWUWbdZRvzDF-96" edge="1">
          <mxGeometry relative="1" as="geometry" />
        </mxCell>
        <mxCell id="wyB5MmASiWUWbdZRvzDF-92" value="Navigate to cases in &#39;Awaiting AOS&#39; state" style="rounded=1;whiteSpace=wrap;html=1;shadow=0;labelBackgroundColor=none;strokeWidth=1;fontFamily=Verdana;fontSize=8;align=center;" parent="wyB5MmASiWUWbdZRvzDF-90" vertex="1">
          <mxGeometry x="700" y="57.50000000000003" width="70" height="37" as="geometry" />
        </mxCell>
        <mxCell id="c1NY_56T70xuO1JxPN3--18" style="edgeStyle=orthogonalEdgeStyle;rounded=0;orthogonalLoop=1;jettySize=auto;html=1;exitX=1;exitY=0.5;exitDx=0;exitDy=0;entryX=0;entryY=0.5;entryDx=0;entryDy=0;" parent="wyB5MmASiWUWbdZRvzDF-90" source="wyB5MmASiWUWbdZRvzDF-94" target="wyB5MmASiWUWbdZRvzDF-116" edge="1">
          <mxGeometry relative="1" as="geometry" />
        </mxCell>
        <mxCell id="wyB5MmASiWUWbdZRvzDF-94" value="Confirm contact details" style="rounded=1;whiteSpace=wrap;html=1;shadow=0;labelBackgroundColor=none;strokeWidth=1;fontFamily=Verdana;fontSize=8;align=center;" parent="wyB5MmASiWUWbdZRvzDF-90" vertex="1">
          <mxGeometry x="879" y="59.5" width="70" height="37" as="geometry" />
        </mxCell>
        <mxCell id="c1NY_56T70xuO1JxPN3--17" style="edgeStyle=orthogonalEdgeStyle;rounded=0;orthogonalLoop=1;jettySize=auto;html=1;exitX=1;exitY=0.5;exitDx=0;exitDy=0;entryX=0;entryY=0.5;entryDx=0;entryDy=0;" parent="wyB5MmASiWUWbdZRvzDF-90" source="wyB5MmASiWUWbdZRvzDF-96" target="wyB5MmASiWUWbdZRvzDF-94" edge="1">
          <mxGeometry relative="1" as="geometry" />
        </mxCell>
        <mxCell id="wyB5MmASiWUWbdZRvzDF-96" value="&lt;b&gt;Start event: &lt;br&gt;&lt;/b&gt;Draft AOS" style="rounded=1;whiteSpace=wrap;html=1;shadow=0;labelBackgroundColor=none;strokeWidth=1;fontFamily=Verdana;fontSize=8;align=center;" parent="wyB5MmASiWUWbdZRvzDF-90" vertex="1">
          <mxGeometry x="790" y="57.5" width="70" height="37" as="geometry" />
        </mxCell>
        <mxCell id="wyB5MmASiWUWbdZRvzDF-97" style="edgeStyle=orthogonalEdgeStyle;rounded=0;orthogonalLoop=1;jettySize=auto;html=1;exitX=0.5;exitY=1;exitDx=0;exitDy=0;entryX=0.5;entryY=1;entryDx=0;entryDy=0;entryPerimeter=0;" parent="wyB5MmASiWUWbdZRvzDF-90" source="wyB5MmASiWUWbdZRvzDF-98" target="wyB5MmASiWUWbdZRvzDF-114" edge="1">
          <mxGeometry relative="1" as="geometry">
            <Array as="points">
              <mxPoint x="1665" y="140" />
              <mxPoint x="1570" y="140" />
            </Array>
          </mxGeometry>
        </mxCell>
        <mxCell id="wyB5MmASiWUWbdZRvzDF-98" value="&lt;b&gt;Event: &lt;/b&gt;&lt;br&gt;Update AOS&lt;br&gt;(no change to state)" style="rounded=1;whiteSpace=wrap;html=1;shadow=0;labelBackgroundColor=none;strokeWidth=1;fontFamily=Verdana;fontSize=8;align=center;" parent="wyB5MmASiWUWbdZRvzDF-90" vertex="1">
          <mxGeometry x="1630" y="93.5" width="70" height="37" as="geometry" />
        </mxCell>
        <mxCell id="c1NY_56T70xuO1JxPN3--22" style="edgeStyle=orthogonalEdgeStyle;rounded=0;orthogonalLoop=1;jettySize=auto;html=1;exitX=1;exitY=0.5;exitDx=0;exitDy=0;" parent="wyB5MmASiWUWbdZRvzDF-90" source="wyB5MmASiWUWbdZRvzDF-100" target="c1NY_56T70xuO1JxPN3--20" edge="1">
          <mxGeometry relative="1" as="geometry" />
        </mxCell>
        <mxCell id="wyB5MmASiWUWbdZRvzDF-100" value="&lt;b&gt;Event:&lt;/b&gt; &lt;br&gt;Submit AOS&lt;br&gt;&lt;b&gt;To state:&lt;/b&gt; AosPresubmit" style="rounded=1;whiteSpace=wrap;html=1;shadow=0;labelBackgroundColor=none;strokeWidth=1;fontFamily=Verdana;fontSize=8;align=center;" parent="wyB5MmASiWUWbdZRvzDF-90" vertex="1">
          <mxGeometry x="1710" y="58.25" width="70" height="37" as="geometry" />
        </mxCell>
        <mxCell id="wyB5MmASiWUWbdZRvzDF-101" style="edgeStyle=orthogonalEdgeStyle;rounded=0;orthogonalLoop=1;jettySize=auto;html=1;exitX=1;exitY=0.5;exitDx=0;exitDy=0;exitPerimeter=0;entryX=0;entryY=0.5;entryDx=0;entryDy=0;" parent="wyB5MmASiWUWbdZRvzDF-90" source="wyB5MmASiWUWbdZRvzDF-106" target="wyB5MmASiWUWbdZRvzDF-108" edge="1">
          <mxGeometry relative="1" as="geometry" />
        </mxCell>
        <mxCell id="wyB5MmASiWUWbdZRvzDF-102" value="No admission &lt;br&gt;/ consent" style="edgeLabel;html=1;align=center;verticalAlign=middle;resizable=0;points=[];" parent="wyB5MmASiWUWbdZRvzDF-101" vertex="1" connectable="0">
          <mxGeometry x="-0.3251" y="-1" relative="1" as="geometry">
            <mxPoint as="offset" />
          </mxGeometry>
        </mxCell>
        <mxCell id="wyB5MmASiWUWbdZRvzDF-103" style="edgeStyle=orthogonalEdgeStyle;rounded=0;orthogonalLoop=1;jettySize=auto;html=1;exitX=0.5;exitY=0;exitDx=0;exitDy=0;exitPerimeter=0;entryX=0;entryY=0.5;entryDx=0;entryDy=0;" parent="wyB5MmASiWUWbdZRvzDF-90" source="wyB5MmASiWUWbdZRvzDF-106" target="wyB5MmASiWUWbdZRvzDF-107" edge="1">
          <mxGeometry relative="1" as="geometry">
            <mxPoint x="1959.9999999999995" y="30" as="targetPoint" />
            <Array as="points">
              <mxPoint x="1930" y="28" />
            </Array>
          </mxGeometry>
        </mxCell>
        <mxCell id="wyB5MmASiWUWbdZRvzDF-104" value="Defended" style="edgeLabel;html=1;align=center;verticalAlign=middle;resizable=0;points=[];" parent="wyB5MmASiWUWbdZRvzDF-103" vertex="1" connectable="0">
          <mxGeometry x="-0.0812" y="-2" relative="1" as="geometry">
            <mxPoint as="offset" />
          </mxGeometry>
        </mxCell>
        <mxCell id="wyB5MmASiWUWbdZRvzDF-105" value="Undefended" style="edgeStyle=orthogonalEdgeStyle;rounded=0;orthogonalLoop=1;jettySize=auto;html=1;exitX=0.5;exitY=1;exitDx=0;exitDy=0;exitPerimeter=0;entryX=0;entryY=0.5;entryDx=0;entryDy=0;" parent="wyB5MmASiWUWbdZRvzDF-90" source="wyB5MmASiWUWbdZRvzDF-106" target="wyB5MmASiWUWbdZRvzDF-109" edge="1">
          <mxGeometry relative="1" as="geometry">
            <mxPoint x="1989.9999999999995" y="123.24999999999977" as="targetPoint" />
            <Array as="points">
              <mxPoint x="1930" y="123" />
            </Array>
          </mxGeometry>
        </mxCell>
        <mxCell id="wyB5MmASiWUWbdZRvzDF-106" value="Defended of undefended?" style="strokeWidth=1;html=1;shape=mxgraph.flowchart.decision;whiteSpace=wrap;rounded=1;shadow=0;labelBackgroundColor=none;fontFamily=Verdana;fontSize=8;align=center;" parent="wyB5MmASiWUWbdZRvzDF-90" vertex="1">
          <mxGeometry x="1890" y="50.75" width="80" height="50" as="geometry" />
        </mxCell>
        <mxCell id="wyB5MmASiWUWbdZRvzDF-107" value="&lt;b&gt;State:&lt;/b&gt;&lt;br&gt;AosSubmitted&lt;br&gt;AwaitingAnswers" style="rounded=1;whiteSpace=wrap;html=1;shadow=0;labelBackgroundColor=none;strokeWidth=1;fontFamily=Verdana;fontSize=8;align=center;" parent="wyB5MmASiWUWbdZRvzDF-90" vertex="1">
          <mxGeometry x="2060" y="9" width="70" height="37" as="geometry" />
        </mxCell>
        <mxCell id="wyB5MmASiWUWbdZRvzDF-108" value="&lt;b&gt;State:&amp;nbsp;&lt;/b&gt;&lt;br&gt;AosCompleted" style="rounded=1;whiteSpace=wrap;html=1;shadow=0;labelBackgroundColor=none;strokeWidth=1;fontFamily=Verdana;fontSize=8;align=center;" parent="wyB5MmASiWUWbdZRvzDF-90" vertex="1">
          <mxGeometry x="2060" y="57.25" width="70" height="37" as="geometry" />
        </mxCell>
        <mxCell id="wyB5MmASiWUWbdZRvzDF-109" value="&lt;b&gt;State:&lt;/b&gt; AwaitingDecree&lt;br&gt;Nisi" style="rounded=1;whiteSpace=wrap;html=1;shadow=0;labelBackgroundColor=none;strokeWidth=1;fontFamily=Verdana;fontSize=8;align=center;" parent="wyB5MmASiWUWbdZRvzDF-90" vertex="1">
          <mxGeometry x="2060" y="104" width="70" height="37" as="geometry" />
        </mxCell>
        <mxCell id="wyB5MmASiWUWbdZRvzDF-110" style="edgeStyle=orthogonalEdgeStyle;rounded=0;orthogonalLoop=1;jettySize=auto;html=1;exitX=0.5;exitY=0;exitDx=0;exitDy=0;exitPerimeter=0;entryX=0.5;entryY=0;entryDx=0;entryDy=0;" parent="wyB5MmASiWUWbdZRvzDF-90" source="wyB5MmASiWUWbdZRvzDF-114" target="wyB5MmASiWUWbdZRvzDF-100" edge="1">
          <mxGeometry relative="1" as="geometry">
            <mxPoint x="1619.9999999999995" y="50" as="sourcePoint" />
            <Array as="points">
              <mxPoint x="1570" y="37" />
              <mxPoint x="1745" y="37" />
            </Array>
          </mxGeometry>
        </mxCell>
        <mxCell id="wyB5MmASiWUWbdZRvzDF-111" value="No update required" style="edgeLabel;html=1;align=center;verticalAlign=middle;resizable=0;points=[];" parent="wyB5MmASiWUWbdZRvzDF-110" vertex="1" connectable="0">
          <mxGeometry x="-0.7701" y="1" relative="1" as="geometry">
            <mxPoint x="38" as="offset" />
          </mxGeometry>
        </mxCell>
        <mxCell id="wyB5MmASiWUWbdZRvzDF-112" style="edgeStyle=orthogonalEdgeStyle;rounded=0;orthogonalLoop=1;jettySize=auto;html=1;exitX=1;exitY=0.5;exitDx=0;exitDy=0;exitPerimeter=0;entryX=0.5;entryY=0;entryDx=0;entryDy=0;" parent="wyB5MmASiWUWbdZRvzDF-90" source="wyB5MmASiWUWbdZRvzDF-114" target="wyB5MmASiWUWbdZRvzDF-98" edge="1">
          <mxGeometry relative="1" as="geometry" />
        </mxCell>
        <mxCell id="wyB5MmASiWUWbdZRvzDF-113" value="Update" style="edgeLabel;html=1;align=center;verticalAlign=middle;resizable=0;points=[];" parent="wyB5MmASiWUWbdZRvzDF-112" vertex="1" connectable="0">
          <mxGeometry x="-0.6218" y="-2" relative="1" as="geometry">
            <mxPoint x="14.17" y="-2.25" as="offset" />
          </mxGeometry>
        </mxCell>
        <mxCell id="wyB5MmASiWUWbdZRvzDF-114" value="Does &lt;br&gt;the AOS response need &lt;br&gt;updating?" style="strokeWidth=1;html=1;shape=mxgraph.flowchart.decision;whiteSpace=wrap;rounded=1;shadow=0;labelBackgroundColor=none;fontFamily=Verdana;fontSize=8;align=center;" parent="wyB5MmASiWUWbdZRvzDF-90" vertex="1">
          <mxGeometry x="1530" y="51.75" width="80" height="50" as="geometry" />
        </mxCell>
        <mxCell id="c1NY_56T70xuO1JxPN3--19" style="edgeStyle=orthogonalEdgeStyle;rounded=0;orthogonalLoop=1;jettySize=auto;html=1;exitX=1;exitY=0.5;exitDx=0;exitDy=0;entryX=0;entryY=0.5;entryDx=0;entryDy=0;" parent="wyB5MmASiWUWbdZRvzDF-90" source="wyB5MmASiWUWbdZRvzDF-116" target="wyB5MmASiWUWbdZRvzDF-118" edge="1">
          <mxGeometry relative="1" as="geometry" />
        </mxCell>
        <mxCell id="wyB5MmASiWUWbdZRvzDF-116" value="Read divorce petition" style="rounded=1;whiteSpace=wrap;html=1;shadow=0;labelBackgroundColor=none;strokeWidth=1;fontFamily=Verdana;fontSize=8;align=center;" parent="wyB5MmASiWUWbdZRvzDF-90" vertex="1">
          <mxGeometry x="970" y="59.25" width="70" height="37" as="geometry" />
        </mxCell>
        <mxCell id="wyB5MmASiWUWbdZRvzDF-117" style="edgeStyle=orthogonalEdgeStyle;rounded=0;orthogonalLoop=1;jettySize=auto;html=1;exitX=1;exitY=0.5;exitDx=0;exitDy=0;entryX=0;entryY=0.5;entryDx=0;entryDy=0;" parent="wyB5MmASiWUWbdZRvzDF-90" source="wyB5MmASiWUWbdZRvzDF-118" target="wyB5MmASiWUWbdZRvzDF-120" edge="1">
          <mxGeometry relative="1" as="geometry" />
        </mxCell>
        <mxCell id="wyB5MmASiWUWbdZRvzDF-118" value="Acknowledge divorce application" style="rounded=1;whiteSpace=wrap;html=1;shadow=0;labelBackgroundColor=none;strokeWidth=1;fontFamily=Verdana;fontSize=8;align=center;" parent="wyB5MmASiWUWbdZRvzDF-90" vertex="1">
          <mxGeometry x="1061" y="57.25" width="70" height="37" as="geometry" />
        </mxCell>
        <mxCell id="wyB5MmASiWUWbdZRvzDF-119" style="edgeStyle=orthogonalEdgeStyle;rounded=0;orthogonalLoop=1;jettySize=auto;html=1;exitX=1;exitY=0.5;exitDx=0;exitDy=0;" parent="wyB5MmASiWUWbdZRvzDF-90" source="wyB5MmASiWUWbdZRvzDF-120" target="wyB5MmASiWUWbdZRvzDF-122" edge="1">
          <mxGeometry relative="1" as="geometry" />
        </mxCell>
        <mxCell id="wyB5MmASiWUWbdZRvzDF-120" value="Agree / disagree with Jurisdiction" style="rounded=1;whiteSpace=wrap;html=1;shadow=0;labelBackgroundColor=none;strokeWidth=1;fontFamily=Verdana;fontSize=8;align=center;" parent="wyB5MmASiWUWbdZRvzDF-90" vertex="1">
          <mxGeometry x="1151" y="57.25" width="70" height="37" as="geometry" />
        </mxCell>
        <mxCell id="wyB5MmASiWUWbdZRvzDF-121" style="edgeStyle=orthogonalEdgeStyle;rounded=0;orthogonalLoop=1;jettySize=auto;html=1;exitX=1;exitY=0.5;exitDx=0;exitDy=0;entryX=0;entryY=0.5;entryDx=0;entryDy=0;" parent="wyB5MmASiWUWbdZRvzDF-90" source="wyB5MmASiWUWbdZRvzDF-122" target="wyB5MmASiWUWbdZRvzDF-124" edge="1">
          <mxGeometry relative="1" as="geometry" />
        </mxCell>
        <mxCell id="wyB5MmASiWUWbdZRvzDF-122" value="State if there are other legal proceedings" style="rounded=1;whiteSpace=wrap;html=1;shadow=0;labelBackgroundColor=none;strokeWidth=1;fontFamily=Verdana;fontSize=8;align=center;" parent="wyB5MmASiWUWbdZRvzDF-90" vertex="1">
          <mxGeometry x="1241" y="57.25" width="70" height="37" as="geometry" />
        </mxCell>
        <mxCell id="wyB5MmASiWUWbdZRvzDF-123" style="edgeStyle=orthogonalEdgeStyle;rounded=0;orthogonalLoop=1;jettySize=auto;html=1;exitX=1;exitY=0.5;exitDx=0;exitDy=0;entryX=0;entryY=0.5;entryDx=0;entryDy=0;" parent="wyB5MmASiWUWbdZRvzDF-90" source="wyB5MmASiWUWbdZRvzDF-124" target="wyB5MmASiWUWbdZRvzDF-126" edge="1">
          <mxGeometry relative="1" as="geometry" />
        </mxCell>
        <mxCell id="wyB5MmASiWUWbdZRvzDF-124" value="Agree / disagree to cost order" style="rounded=1;whiteSpace=wrap;html=1;shadow=0;labelBackgroundColor=none;strokeWidth=1;fontFamily=Verdana;fontSize=8;align=center;" parent="wyB5MmASiWUWbdZRvzDF-90" vertex="1">
          <mxGeometry x="1340" y="58.25" width="70" height="37" as="geometry" />
        </mxCell>
        <mxCell id="wyB5MmASiWUWbdZRvzDF-125" style="edgeStyle=orthogonalEdgeStyle;rounded=0;orthogonalLoop=1;jettySize=auto;html=1;exitX=1;exitY=0.5;exitDx=0;exitDy=0;entryX=0;entryY=0.5;entryDx=0;entryDy=0;entryPerimeter=0;" parent="wyB5MmASiWUWbdZRvzDF-90" source="wyB5MmASiWUWbdZRvzDF-126" target="wyB5MmASiWUWbdZRvzDF-114" edge="1">
          <mxGeometry relative="1" as="geometry" />
        </mxCell>
        <mxCell id="wyB5MmASiWUWbdZRvzDF-126" value="&lt;b&gt;Submit event:&lt;br&gt;&lt;/b&gt;Draft AOS&lt;br&gt;&lt;b&gt;To state:&lt;/b&gt;&amp;nbsp;&lt;br&gt;AosDrafted" style="rounded=1;whiteSpace=wrap;html=1;shadow=0;labelBackgroundColor=none;strokeWidth=1;fontFamily=Verdana;fontSize=8;align=center;" parent="wyB5MmASiWUWbdZRvzDF-90" vertex="1">
          <mxGeometry x="1430" y="50" width="70" height="53.5" as="geometry" />
        </mxCell>
        <mxCell id="c1NY_56T70xuO1JxPN3--23" style="edgeStyle=orthogonalEdgeStyle;rounded=0;orthogonalLoop=1;jettySize=auto;html=1;exitX=1;exitY=0.5;exitDx=0;exitDy=0;entryX=0;entryY=0.5;entryDx=0;entryDy=0;entryPerimeter=0;" parent="wyB5MmASiWUWbdZRvzDF-90" source="c1NY_56T70xuO1JxPN3--20" target="wyB5MmASiWUWbdZRvzDF-106" edge="1">
          <mxGeometry relative="1" as="geometry" />
        </mxCell>
        <mxCell id="c1NY_56T70xuO1JxPN3--20" value="Enter statement of truth details" style="rounded=1;whiteSpace=wrap;html=1;shadow=0;labelBackgroundColor=none;strokeWidth=1;fontFamily=Verdana;fontSize=8;align=center;" parent="wyB5MmASiWUWbdZRvzDF-90" vertex="1">
          <mxGeometry x="1800" y="58.25" width="70" height="37" as="geometry" />
        </mxCell>
        <mxCell id="wyB5MmASiWUWbdZRvzDF-141" value="Co-respondent solicitor " style="swimlane;html=1;startSize=40;horizontal=0;" parent="wyB5MmASiWUWbdZRvzDF-2" vertex="1">
          <mxGeometry y="896.5" width="2260" height="160" as="geometry" />
        </mxCell>
        <mxCell id="wyB5MmASiWUWbdZRvzDF-143" style="edgeStyle=orthogonalEdgeStyle;rounded=0;orthogonalLoop=1;jettySize=auto;html=1;exitX=1;exitY=0.5;exitDx=0;exitDy=0;entryX=0;entryY=0.5;entryDx=0;entryDy=0;" parent="wyB5MmASiWUWbdZRvzDF-141" edge="1">
          <mxGeometry relative="1" as="geometry">
            <mxPoint x="1110" y="88.5" as="sourcePoint" />
          </mxGeometry>
        </mxCell>
        <mxCell id="wyB5MmASiWUWbdZRvzDF-146" style="edgeStyle=orthogonalEdgeStyle;rounded=0;orthogonalLoop=1;jettySize=auto;html=1;exitX=1;exitY=0.5;exitDx=0;exitDy=0;entryX=0;entryY=0.5;entryDx=0;entryDy=0;" parent="wyB5MmASiWUWbdZRvzDF-141" edge="1">
          <mxGeometry relative="1" as="geometry">
            <mxPoint x="1020" y="88.5" as="sourcePoint" />
          </mxGeometry>
        </mxCell>
        <mxCell id="wyB5MmASiWUWbdZRvzDF-148" style="edgeStyle=orthogonalEdgeStyle;rounded=0;orthogonalLoop=1;jettySize=auto;html=1;exitX=1;exitY=0.5;exitDx=0;exitDy=0;" parent="wyB5MmASiWUWbdZRvzDF-141" edge="1">
          <mxGeometry relative="1" as="geometry">
            <mxPoint x="1225" y="88.5" as="targetPoint" />
            <mxPoint x="1205" y="88.5" as="sourcePoint" />
          </mxGeometry>
        </mxCell>
        <mxCell id="c1NY_56T70xuO1JxPN3--54" style="edgeStyle=orthogonalEdgeStyle;rounded=0;orthogonalLoop=1;jettySize=auto;html=1;exitX=1;exitY=0.5;exitDx=0;exitDy=0;entryX=0;entryY=0.5;entryDx=0;entryDy=0;" parent="wyB5MmASiWUWbdZRvzDF-141" source="c1NY_56T70xuO1JxPN3--24" target="c1NY_56T70xuO1JxPN3--25" edge="1">
          <mxGeometry relative="1" as="geometry" />
        </mxCell>
        <mxCell id="c1NY_56T70xuO1JxPN3--24" value="Fill out AOS form" style="rounded=1;whiteSpace=wrap;html=1;shadow=0;labelBackgroundColor=none;strokeWidth=1;fontFamily=Verdana;fontSize=8;align=center;" parent="wyB5MmASiWUWbdZRvzDF-141" vertex="1">
          <mxGeometry x="600" y="61.75" width="70" height="37" as="geometry" />
        </mxCell>
        <mxCell id="c1NY_56T70xuO1JxPN3--25" value="Post / email AOS form" style="rounded=1;whiteSpace=wrap;html=1;shadow=0;labelBackgroundColor=none;strokeWidth=1;fontFamily=Verdana;fontSize=8;align=center;" parent="wyB5MmASiWUWbdZRvzDF-141" vertex="1">
          <mxGeometry x="690" y="61.5" width="70" height="37" as="geometry" />
        </mxCell>
        <mxCell id="c1NY_56T70xuO1JxPN3--26" value="Caseworker (again)" style="swimlane;html=1;startSize=40;horizontal=0;" parent="wyB5MmASiWUWbdZRvzDF-2" vertex="1">
          <mxGeometry y="1056.5" width="2260" height="160" as="geometry" />
        </mxCell>
        <mxCell id="c1NY_56T70xuO1JxPN3--28" value="Enter co-respondent AOS details" style="rounded=1;whiteSpace=wrap;html=1;shadow=0;labelBackgroundColor=none;strokeWidth=1;fontFamily=Verdana;fontSize=8;align=center;" parent="c1NY_56T70xuO1JxPN3--26" vertex="1">
          <mxGeometry x="890" y="61.5" width="70" height="37" as="geometry" />
        </mxCell>
        <mxCell id="c1NY_56T70xuO1JxPN3--29" style="edgeStyle=orthogonalEdgeStyle;rounded=0;orthogonalLoop=1;jettySize=auto;html=1;exitX=1;exitY=0.5;exitDx=0;exitDy=0;entryX=0;entryY=0.5;entryDx=0;entryDy=0;" parent="c1NY_56T70xuO1JxPN3--26" source="c1NY_56T70xuO1JxPN3--30" target="c1NY_56T70xuO1JxPN3--28" edge="1">
          <mxGeometry relative="1" as="geometry" />
        </mxCell>
        <mxCell id="c1NY_56T70xuO1JxPN3--30" value="&lt;b&gt;Start event: &lt;br&gt;&lt;/b&gt;Enter respondent AOS Offline" style="rounded=1;whiteSpace=wrap;html=1;shadow=0;labelBackgroundColor=none;strokeWidth=1;fontFamily=Verdana;fontSize=8;align=center;" parent="c1NY_56T70xuO1JxPN3--26" vertex="1">
          <mxGeometry x="800" y="61.5" width="70" height="37" as="geometry" />
        </mxCell>
        <mxCell id="c1NY_56T70xuO1JxPN3--31" style="edgeStyle=orthogonalEdgeStyle;rounded=0;orthogonalLoop=1;jettySize=auto;html=1;exitX=1;exitY=0.5;exitDx=0;exitDy=0;" parent="c1NY_56T70xuO1JxPN3--26" edge="1">
          <mxGeometry relative="1" as="geometry">
            <mxPoint x="1225" y="88.5" as="targetPoint" />
            <mxPoint x="1205" y="88.5" as="sourcePoint" />
          </mxGeometry>
        </mxCell>
        <mxCell id="c1NY_56T70xuO1JxPN3--33" style="edgeStyle=orthogonalEdgeStyle;rounded=0;orthogonalLoop=1;jettySize=auto;html=1;exitX=1;exitY=0.5;exitDx=0;exitDy=0;entryX=0;entryY=0.5;entryDx=0;entryDy=0;" parent="c1NY_56T70xuO1JxPN3--26" edge="1">
          <mxGeometry relative="1" as="geometry">
            <mxPoint x="1300" y="88.5" as="sourcePoint" />
          </mxGeometry>
        </mxCell>
        <mxCell id="c1NY_56T70xuO1JxPN3--35" style="edgeStyle=orthogonalEdgeStyle;rounded=0;orthogonalLoop=1;jettySize=auto;html=1;exitX=1;exitY=0.5;exitDx=0;exitDy=0;entryX=0;entryY=0.5;entryDx=0;entryDy=0;" parent="c1NY_56T70xuO1JxPN3--26" edge="1">
          <mxGeometry relative="1" as="geometry">
            <mxPoint x="1390" y="88.5" as="sourcePoint" />
          </mxGeometry>
        </mxCell>
        <mxCell id="c1NY_56T70xuO1JxPN3--43" style="edgeStyle=orthogonalEdgeStyle;rounded=0;orthogonalLoop=1;jettySize=auto;html=1;exitX=0;exitY=0.5;exitDx=0;exitDy=0;entryX=0.442;entryY=0.983;entryDx=0;entryDy=0;entryPerimeter=0;" parent="c1NY_56T70xuO1JxPN3--26" edge="1">
          <mxGeometry relative="1" as="geometry">
            <mxPoint x="1575.3600000000001" y="112.65000000000009" as="targetPoint" />
          </mxGeometry>
        </mxCell>
        <mxCell id="c1NY_56T70xuO1JxPN3--46" style="edgeStyle=orthogonalEdgeStyle;rounded=0;orthogonalLoop=1;jettySize=auto;html=1;exitX=0.5;exitY=0;exitDx=0;exitDy=0;exitPerimeter=0;entryX=0.5;entryY=0;entryDx=0;entryDy=0;" parent="c1NY_56T70xuO1JxPN3--26" edge="1">
          <mxGeometry relative="1" as="geometry">
            <mxPoint x="1765" y="68.25" as="targetPoint" />
          </mxGeometry>
        </mxCell>
        <mxCell id="c1NY_56T70xuO1JxPN3--47" value="No update required" style="edgeLabel;html=1;align=center;verticalAlign=middle;resizable=0;points=[];" parent="c1NY_56T70xuO1JxPN3--46" vertex="1" connectable="0">
          <mxGeometry x="-0.5981" y="3" relative="1" as="geometry">
            <mxPoint x="24.17" as="offset" />
          </mxGeometry>
        </mxCell>
        <mxCell id="c1NY_56T70xuO1JxPN3--48" style="edgeStyle=orthogonalEdgeStyle;rounded=0;orthogonalLoop=1;jettySize=auto;html=1;exitX=1;exitY=0.5;exitDx=0;exitDy=0;exitPerimeter=0;entryX=0.5;entryY=0;entryDx=0;entryDy=0;" parent="c1NY_56T70xuO1JxPN3--26" edge="1">
          <mxGeometry relative="1" as="geometry">
            <mxPoint x="1620" y="88.5" as="sourcePoint" />
          </mxGeometry>
        </mxCell>
        <mxCell id="c1NY_56T70xuO1JxPN3--49" value="Update" style="edgeLabel;html=1;align=center;verticalAlign=middle;resizable=0;points=[];" parent="c1NY_56T70xuO1JxPN3--48" vertex="1" connectable="0">
          <mxGeometry x="-0.6807" y="-1" relative="1" as="geometry">
            <mxPoint as="offset" />
          </mxGeometry>
        </mxCell>
        <mxCell id="c1NY_56T70xuO1JxPN3--55" style="edgeStyle=orthogonalEdgeStyle;rounded=0;orthogonalLoop=1;jettySize=auto;html=1;exitX=1;exitY=0.5;exitDx=0;exitDy=0;entryX=0;entryY=0.5;entryDx=0;entryDy=0;" parent="wyB5MmASiWUWbdZRvzDF-2" source="c1NY_56T70xuO1JxPN3--25" target="c1NY_56T70xuO1JxPN3--30" edge="1">
          <mxGeometry relative="1" as="geometry" />
        </mxCell>
        <mxCell id="wyB5MmASiWUWbdZRvzDF-134" value="&lt;span style=&quot;font-size: 18px&quot;&gt;Divorce - NFD Process&lt;/span&gt;" style="rounded=0;whiteSpace=wrap;html=1;fillColor=#000000;fontColor=#FFFFFF;" parent="wyB5MmASiWUWbdZRvzDF-1" vertex="1">
          <mxGeometry x="40" y="19" width="2140" height="40" as="geometry" />
        </mxCell>
        <mxCell id="wyB5MmASiWUWbdZRvzDF-172" style="edgeStyle=orthogonalEdgeStyle;rounded=0;orthogonalLoop=1;jettySize=auto;html=1;exitX=0.5;exitY=1;exitDx=0;exitDy=0;entryX=0;entryY=0.5;entryDx=0;entryDy=0;" parent="wyB5MmASiWUWbdZRvzDF-1" source="wyB5MmASiWUWbdZRvzDF-77" edge="1">
          <mxGeometry relative="1" as="geometry">
            <mxPoint x="630" y="778.5" as="targetPoint" />
            <Array as="points">
              <mxPoint x="585" y="779" />
            </Array>
          </mxGeometry>
        </mxCell>
        <mxCell id="wyB5MmASiWUWbdZRvzDF-174" value="Last update: 17/08/2021" style="text;html=1;strokeColor=none;fillColor=none;align=center;verticalAlign=middle;whiteSpace=wrap;rounded=0;fontColor=#FFFFFF;" parent="wyB5MmASiWUWbdZRvzDF-1" vertex="1">
          <mxGeometry x="2010" y="29" width="150" height="20" as="geometry" />
        </mxCell>
        <mxCell id="Y6NthDMX_8adtIv0fMUY-22" style="edgeStyle=orthogonalEdgeStyle;rounded=0;orthogonalLoop=1;jettySize=auto;html=1;" parent="wyB5MmASiWUWbdZRvzDF-1" source="wyB5MmASiWUWbdZRvzDF-12" edge="1">
          <mxGeometry relative="1" as="geometry">
            <mxPoint x="930.0000000000002" y="150" as="targetPoint" />
            <Array as="points">
              <mxPoint x="700" y="120" />
              <mxPoint x="930" y="120" />
            </Array>
          </mxGeometry>
        </mxCell>
        <mxCell id="4Gsy31ebdq-OGoGYC07o-53" value="Questions for joint:&amp;nbsp;&lt;br&gt;&lt;br&gt;- should we be asking for HWF information first or will solicitors be aware of this?&amp;nbsp;&lt;br&gt;&lt;br&gt;" style="shape=process;whiteSpace=wrap;html=1;backgroundOutline=1;strokeColor=#FF0000;" vertex="1" parent="wyB5MmASiWUWbdZRvzDF-1">
          <mxGeometry x="-460" y="270" width="320" height="200" as="geometry" />
        </mxCell>
      </root>
    </mxGraphModel>
  </diagram>
  <diagram name="Version 1" id="k3Jd0ISuG4yfQMjMCZCH">
    <mxGraphModel dx="1186" dy="534" grid="1" gridSize="10" guides="1" tooltips="1" connect="1" arrows="1" fold="1" page="1" pageScale="1" pageWidth="2336" pageHeight="1654" background="#ffffff" math="0" shadow="0">
      <root>
        <mxCell id="0" />
        <mxCell id="1" parent="0" />
        <mxCell id="2b4e8129b02d487f-1" value="Petitioner solicitor finds respondent solicitor firm from the organisation search and nominates. Optionally,&amp;nbsp; a co-respondent solicitor is nominated. Respondent solicitor&#39;s CAA shares case with solicitor(s) who complete the AOS. If applicable, co-respondent solicitor&#39;s CAA shares case with solicitor(s) who complete the co-respondent&#39;s AOS." style="swimlane;html=1;childLayout=stackLayout;horizontal=1;startSize=20;horizontalStack=0;rounded=0;shadow=0;labelBackgroundColor=none;strokeWidth=1;fontFamily=Verdana;fontSize=8;align=center;" parent="1" vertex="1">
          <mxGeometry x="40" y="60" width="2140" height="493.5" as="geometry" />
        </mxCell>
        <mxCell id="2b4e8129b02d487f-2" value="Petitioner solicitor" style="swimlane;html=1;startSize=30;horizontal=0;" parent="2b4e8129b02d487f-1" vertex="1">
          <mxGeometry y="20" width="2140" height="183.5" as="geometry" />
        </mxCell>
        <mxCell id="_krw7o2FG_3SmGjkz55r-19" style="edgeStyle=orthogonalEdgeStyle;rounded=0;orthogonalLoop=1;jettySize=auto;html=1;exitX=1;exitY=0.5;exitDx=0;exitDy=0;" parent="2b4e8129b02d487f-2" source="2b4e8129b02d487f-6" target="_krw7o2FG_3SmGjkz55r-9" edge="1">
          <mxGeometry relative="1" as="geometry" />
        </mxCell>
        <mxCell id="2b4e8129b02d487f-6" value="&lt;b&gt;Start event:&lt;/b&gt;&lt;br&gt;&amp;nbsp;Apply for divorce" style="rounded=1;whiteSpace=wrap;html=1;shadow=0;labelBackgroundColor=none;strokeWidth=1;fontFamily=Verdana;fontSize=8;align=center;" parent="2b4e8129b02d487f-2" vertex="1">
          <mxGeometry x="40" y="76.49999999999997" width="70" height="37" as="geometry" />
        </mxCell>
        <mxCell id="_krw7o2FG_3SmGjkz55r-22" style="edgeStyle=orthogonalEdgeStyle;rounded=0;orthogonalLoop=1;jettySize=auto;html=1;exitX=1;exitY=0.5;exitDx=0;exitDy=0;entryX=0;entryY=0.5;entryDx=0;entryDy=0;entryPerimeter=0;" parent="2b4e8129b02d487f-2" source="2b4e8129b02d487f-9" target="_krw7o2FG_3SmGjkz55r-12" edge="1">
          <mxGeometry relative="1" as="geometry" />
        </mxCell>
        <mxCell id="2b4e8129b02d487f-9" value="Lookup respondent solicitor org details" style="rounded=1;whiteSpace=wrap;html=1;shadow=0;labelBackgroundColor=none;strokeWidth=1;fontFamily=Verdana;fontSize=8;align=center;" parent="2b4e8129b02d487f-2" vertex="1">
          <mxGeometry x="350" y="76.49999999999997" width="70" height="37" as="geometry" />
        </mxCell>
        <mxCell id="_krw7o2FG_3SmGjkz55r-20" style="edgeStyle=orthogonalEdgeStyle;rounded=0;orthogonalLoop=1;jettySize=auto;html=1;exitX=1;exitY=0.5;exitDx=0;exitDy=0;entryX=0;entryY=0.5;entryDx=0;entryDy=0;entryPerimeter=0;" parent="2b4e8129b02d487f-2" source="_krw7o2FG_3SmGjkz55r-9" target="_krw7o2FG_3SmGjkz55r-10" edge="1">
          <mxGeometry relative="1" as="geometry" />
        </mxCell>
        <mxCell id="_krw7o2FG_3SmGjkz55r-9" value="Search for &#39;my organisation&#39; details" style="rounded=1;whiteSpace=wrap;html=1;shadow=0;labelBackgroundColor=none;strokeWidth=1;fontFamily=Verdana;fontSize=8;align=center;fillColor=#f8cecc;strokeColor=#b85450;" parent="2b4e8129b02d487f-2" vertex="1">
          <mxGeometry x="130" y="76.49999999999997" width="70" height="37" as="geometry" />
        </mxCell>
        <mxCell id="_krw7o2FG_3SmGjkz55r-21" value="Yes" style="edgeStyle=orthogonalEdgeStyle;rounded=0;orthogonalLoop=1;jettySize=auto;html=1;exitX=1;exitY=0.5;exitDx=0;exitDy=0;exitPerimeter=0;entryX=0;entryY=0.5;entryDx=0;entryDy=0;" parent="2b4e8129b02d487f-2" source="_krw7o2FG_3SmGjkz55r-10" target="2b4e8129b02d487f-9" edge="1">
          <mxGeometry relative="1" as="geometry" />
        </mxCell>
        <mxCell id="_krw7o2FG_3SmGjkz55r-28" value="No" style="edgeStyle=orthogonalEdgeStyle;rounded=0;orthogonalLoop=1;jettySize=auto;html=1;exitX=0.5;exitY=1;exitDx=0;exitDy=0;exitPerimeter=0;entryX=0.5;entryY=1;entryDx=0;entryDy=0;" parent="2b4e8129b02d487f-2" source="_krw7o2FG_3SmGjkz55r-10" target="_krw7o2FG_3SmGjkz55r-13" edge="1">
          <mxGeometry x="-0.668" relative="1" as="geometry">
            <Array as="points">
              <mxPoint x="270" y="140" />
              <mxPoint x="585" y="140" />
            </Array>
            <mxPoint as="offset" />
          </mxGeometry>
        </mxCell>
        <mxCell id="_krw7o2FG_3SmGjkz55r-10" value="Is the &lt;br&gt;respondent represented?" style="strokeWidth=1;html=1;shape=mxgraph.flowchart.decision;whiteSpace=wrap;rounded=1;shadow=0;labelBackgroundColor=none;fontFamily=Verdana;fontSize=8;align=center;" parent="2b4e8129b02d487f-2" vertex="1">
          <mxGeometry x="230" y="70" width="80" height="50" as="geometry" />
        </mxCell>
        <mxCell id="_krw7o2FG_3SmGjkz55r-25" style="edgeStyle=orthogonalEdgeStyle;rounded=0;orthogonalLoop=1;jettySize=auto;html=1;exitX=1;exitY=0.5;exitDx=0;exitDy=0;exitPerimeter=0;entryX=0;entryY=0.5;entryDx=0;entryDy=0;" parent="2b4e8129b02d487f-2" source="_krw7o2FG_3SmGjkz55r-12" target="_krw7o2FG_3SmGjkz55r-13" edge="1">
          <mxGeometry relative="1" as="geometry" />
        </mxCell>
        <mxCell id="_krw7o2FG_3SmGjkz55r-55" value="No" style="edgeLabel;html=1;align=center;verticalAlign=middle;resizable=0;points=[];" parent="_krw7o2FG_3SmGjkz55r-25" vertex="1" connectable="0">
          <mxGeometry x="-0.3287" y="-1" relative="1" as="geometry">
            <mxPoint as="offset" />
          </mxGeometry>
        </mxCell>
        <mxCell id="_krw7o2FG_3SmGjkz55r-12" value="Able to find respondent solicitor org?" style="strokeWidth=1;html=1;shape=mxgraph.flowchart.decision;whiteSpace=wrap;rounded=1;shadow=0;labelBackgroundColor=none;fontFamily=Verdana;fontSize=8;align=center;" parent="2b4e8129b02d487f-2" vertex="1">
          <mxGeometry x="440" y="70" width="80" height="50" as="geometry" />
        </mxCell>
        <mxCell id="_krw7o2FG_3SmGjkz55r-15" value="&lt;h6&gt;&lt;span style=&quot;font-size: 8px ; font-weight: 400&quot;&gt;There is no way of automating this info. The solicitor will still need to manually enter their address&lt;/span&gt;&lt;/h6&gt;" style="shape=note;whiteSpace=wrap;html=1;backgroundOutline=1;darkOpacity=0.05;size=12;fillColor=#FFFFCC;spacingRight=10;" parent="2b4e8129b02d487f-2" vertex="1">
          <mxGeometry x="120" y="4" width="90" height="66.5" as="geometry" />
        </mxCell>
        <mxCell id="_krw7o2FG_3SmGjkz55r-27" value="Yes" style="edgeStyle=orthogonalEdgeStyle;rounded=0;orthogonalLoop=1;jettySize=auto;html=1;exitX=1;exitY=0.5;exitDx=0;exitDy=0;entryX=0;entryY=0.5;entryDx=0;entryDy=0;entryPerimeter=0;exitPerimeter=0;" parent="2b4e8129b02d487f-2" source="_krw7o2FG_3SmGjkz55r-16" target="_krw7o2FG_3SmGjkz55r-17" edge="1">
          <mxGeometry relative="1" as="geometry">
            <mxPoint x="790" y="95" as="sourcePoint" />
          </mxGeometry>
        </mxCell>
        <mxCell id="_krw7o2FG_3SmGjkz55r-53" style="edgeStyle=orthogonalEdgeStyle;rounded=0;orthogonalLoop=1;jettySize=auto;html=1;exitX=0.5;exitY=1;exitDx=0;exitDy=0;exitPerimeter=0;entryX=0.5;entryY=1;entryDx=0;entryDy=0;" parent="2b4e8129b02d487f-2" source="_krw7o2FG_3SmGjkz55r-16" target="_krw7o2FG_3SmGjkz55r-31" edge="1">
          <mxGeometry relative="1" as="geometry">
            <Array as="points">
              <mxPoint x="790" y="150" />
              <mxPoint x="1415" y="150" />
            </Array>
          </mxGeometry>
        </mxCell>
        <mxCell id="_krw7o2FG_3SmGjkz55r-54" value="No" style="edgeLabel;html=1;align=center;verticalAlign=middle;resizable=0;points=[];" parent="_krw7o2FG_3SmGjkz55r-53" vertex="1" connectable="0">
          <mxGeometry x="-0.811" relative="1" as="geometry">
            <mxPoint as="offset" />
          </mxGeometry>
        </mxCell>
        <mxCell id="_krw7o2FG_3SmGjkz55r-16" value="is there a co-respondent?" style="strokeWidth=1;html=1;shape=mxgraph.flowchart.decision;whiteSpace=wrap;rounded=1;shadow=0;labelBackgroundColor=none;fontFamily=Verdana;fontSize=8;align=center;" parent="2b4e8129b02d487f-2" vertex="1">
          <mxGeometry x="750" y="70" width="80" height="50" as="geometry" />
        </mxCell>
        <mxCell id="_krw7o2FG_3SmGjkz55r-39" style="edgeStyle=orthogonalEdgeStyle;rounded=0;orthogonalLoop=1;jettySize=auto;html=1;exitX=0.5;exitY=1;exitDx=0;exitDy=0;exitPerimeter=0;entryX=0.5;entryY=1;entryDx=0;entryDy=0;" parent="2b4e8129b02d487f-2" source="_krw7o2FG_3SmGjkz55r-17" target="_krw7o2FG_3SmGjkz55r-24" edge="1">
          <mxGeometry relative="1" as="geometry" />
        </mxCell>
        <mxCell id="_krw7o2FG_3SmGjkz55r-40" value="No" style="edgeLabel;html=1;align=center;verticalAlign=middle;resizable=0;points=[];" parent="_krw7o2FG_3SmGjkz55r-39" vertex="1" connectable="0">
          <mxGeometry x="-0.7558" y="-2" relative="1" as="geometry">
            <mxPoint as="offset" />
          </mxGeometry>
        </mxCell>
        <mxCell id="_krw7o2FG_3SmGjkz55r-41" style="edgeStyle=orthogonalEdgeStyle;rounded=0;orthogonalLoop=1;jettySize=auto;html=1;exitX=1;exitY=0.5;exitDx=0;exitDy=0;exitPerimeter=0;entryX=0;entryY=0.5;entryDx=0;entryDy=0;" parent="2b4e8129b02d487f-2" source="_krw7o2FG_3SmGjkz55r-17" target="_krw7o2FG_3SmGjkz55r-18" edge="1">
          <mxGeometry relative="1" as="geometry" />
        </mxCell>
        <mxCell id="_krw7o2FG_3SmGjkz55r-63" value="Yes" style="edgeLabel;html=1;align=center;verticalAlign=middle;resizable=0;points=[];" parent="_krw7o2FG_3SmGjkz55r-41" vertex="1" connectable="0">
          <mxGeometry x="-0.3" relative="1" as="geometry">
            <mxPoint as="offset" />
          </mxGeometry>
        </mxCell>
        <mxCell id="_krw7o2FG_3SmGjkz55r-17" value="Is &lt;br&gt;co-respondent represented?" style="strokeWidth=1;html=1;shape=mxgraph.flowchart.decision;whiteSpace=wrap;rounded=1;shadow=0;labelBackgroundColor=none;fontFamily=Verdana;fontSize=8;align=center;" parent="2b4e8129b02d487f-2" vertex="1">
          <mxGeometry x="870" y="70" width="80" height="50" as="geometry" />
        </mxCell>
        <mxCell id="_krw7o2FG_3SmGjkz55r-42" style="edgeStyle=orthogonalEdgeStyle;rounded=0;orthogonalLoop=1;jettySize=auto;html=1;exitX=1;exitY=0.5;exitDx=0;exitDy=0;entryX=0;entryY=0.5;entryDx=0;entryDy=0;entryPerimeter=0;" parent="2b4e8129b02d487f-2" source="_krw7o2FG_3SmGjkz55r-18" target="_krw7o2FG_3SmGjkz55r-23" edge="1">
          <mxGeometry relative="1" as="geometry" />
        </mxCell>
        <mxCell id="_krw7o2FG_3SmGjkz55r-18" value="Lookup co-respondent solicitor org details" style="rounded=1;whiteSpace=wrap;html=1;shadow=0;labelBackgroundColor=none;strokeWidth=1;fontFamily=Verdana;fontSize=8;align=center;" parent="2b4e8129b02d487f-2" vertex="1">
          <mxGeometry x="990" y="76.49999999999997" width="70" height="37" as="geometry" />
        </mxCell>
        <mxCell id="_krw7o2FG_3SmGjkz55r-30" style="edgeStyle=orthogonalEdgeStyle;rounded=0;orthogonalLoop=1;jettySize=auto;html=1;exitX=1;exitY=0.5;exitDx=0;exitDy=0;entryX=0;entryY=0.5;entryDx=0;entryDy=0;" parent="2b4e8129b02d487f-2" source="_krw7o2FG_3SmGjkz55r-13" target="_krw7o2FG_3SmGjkz55r-109" edge="1">
          <mxGeometry relative="1" as="geometry" />
        </mxCell>
        <mxCell id="_krw7o2FG_3SmGjkz55r-13" value="Enter respondent service address" style="rounded=1;whiteSpace=wrap;html=1;shadow=0;labelBackgroundColor=none;strokeWidth=1;fontFamily=Verdana;fontSize=8;align=center;fillColor=#d5e8d4;strokeColor=#82b366;" parent="2b4e8129b02d487f-2" vertex="1">
          <mxGeometry x="550" y="76.49999999999997" width="70" height="37" as="geometry" />
        </mxCell>
        <mxCell id="_krw7o2FG_3SmGjkz55r-43" style="edgeStyle=orthogonalEdgeStyle;rounded=0;orthogonalLoop=1;jettySize=auto;html=1;exitX=0.5;exitY=0;exitDx=0;exitDy=0;exitPerimeter=0;entryX=0.5;entryY=0;entryDx=0;entryDy=0;" parent="2b4e8129b02d487f-2" source="_krw7o2FG_3SmGjkz55r-23" target="_krw7o2FG_3SmGjkz55r-24" edge="1">
          <mxGeometry relative="1" as="geometry">
            <Array as="points">
              <mxPoint x="1120" y="50" />
              <mxPoint x="1235" y="50" />
            </Array>
          </mxGeometry>
        </mxCell>
        <mxCell id="_krw7o2FG_3SmGjkz55r-56" value="Yes" style="edgeLabel;html=1;align=center;verticalAlign=middle;resizable=0;points=[];" parent="_krw7o2FG_3SmGjkz55r-43" vertex="1" connectable="0">
          <mxGeometry x="-0.8882" y="1" relative="1" as="geometry">
            <mxPoint as="offset" />
          </mxGeometry>
        </mxCell>
        <mxCell id="_krw7o2FG_3SmGjkz55r-44" style="edgeStyle=orthogonalEdgeStyle;rounded=0;orthogonalLoop=1;jettySize=auto;html=1;exitX=1;exitY=0.5;exitDx=0;exitDy=0;exitPerimeter=0;entryX=0;entryY=0.5;entryDx=0;entryDy=0;" parent="2b4e8129b02d487f-2" source="_krw7o2FG_3SmGjkz55r-23" target="_krw7o2FG_3SmGjkz55r-24" edge="1">
          <mxGeometry relative="1" as="geometry" />
        </mxCell>
        <mxCell id="_krw7o2FG_3SmGjkz55r-45" value="No" style="edgeLabel;html=1;align=center;verticalAlign=middle;resizable=0;points=[];" parent="_krw7o2FG_3SmGjkz55r-44" vertex="1" connectable="0">
          <mxGeometry x="-0.3034" y="1" relative="1" as="geometry">
            <mxPoint as="offset" />
          </mxGeometry>
        </mxCell>
        <mxCell id="_krw7o2FG_3SmGjkz55r-23" value="Able to &lt;br&gt;find co-respondent solicitor org?" style="strokeWidth=1;html=1;shape=mxgraph.flowchart.decision;whiteSpace=wrap;rounded=1;shadow=0;labelBackgroundColor=none;fontFamily=Verdana;fontSize=8;align=center;" parent="2b4e8129b02d487f-2" vertex="1">
          <mxGeometry x="1080" y="70" width="80" height="50" as="geometry" />
        </mxCell>
        <mxCell id="_krw7o2FG_3SmGjkz55r-112" style="edgeStyle=orthogonalEdgeStyle;rounded=0;orthogonalLoop=1;jettySize=auto;html=1;exitX=1;exitY=0.5;exitDx=0;exitDy=0;entryX=0;entryY=0.5;entryDx=0;entryDy=0;" parent="2b4e8129b02d487f-2" source="_krw7o2FG_3SmGjkz55r-24" target="_krw7o2FG_3SmGjkz55r-111" edge="1">
          <mxGeometry relative="1" as="geometry" />
        </mxCell>
        <mxCell id="_krw7o2FG_3SmGjkz55r-24" value="Enter co-respondent service address" style="rounded=1;whiteSpace=wrap;html=1;shadow=0;labelBackgroundColor=none;strokeWidth=1;fontFamily=Verdana;fontSize=8;align=center;" parent="2b4e8129b02d487f-2" vertex="1">
          <mxGeometry x="1200" y="76.49999999999997" width="70" height="37" as="geometry" />
        </mxCell>
        <mxCell id="_krw7o2FG_3SmGjkz55r-47" style="edgeStyle=orthogonalEdgeStyle;rounded=0;orthogonalLoop=1;jettySize=auto;html=1;exitX=1;exitY=0.5;exitDx=0;exitDy=0;entryX=0;entryY=0.5;entryDx=0;entryDy=0;" parent="2b4e8129b02d487f-2" source="_krw7o2FG_3SmGjkz55r-31" target="_krw7o2FG_3SmGjkz55r-33" edge="1">
          <mxGeometry relative="1" as="geometry">
            <mxPoint x="1380.0000000000002" y="95" as="targetPoint" />
          </mxGeometry>
        </mxCell>
        <mxCell id="_krw7o2FG_3SmGjkz55r-31" value="&lt;b&gt;Finish event:&lt;/b&gt;&lt;br&gt;&amp;nbsp;Apply for divorce&lt;br&gt;&lt;b&gt;To state:&lt;/b&gt;&lt;br&gt;SOTAgreement&lt;br&gt;PayAndSubmit&lt;br&gt;Required" style="rounded=1;whiteSpace=wrap;html=1;shadow=0;labelBackgroundColor=none;strokeWidth=1;fontFamily=Verdana;fontSize=8;align=center;" parent="2b4e8129b02d487f-2" vertex="1">
          <mxGeometry x="1380" y="60" width="70" height="70" as="geometry" />
        </mxCell>
        <mxCell id="_krw7o2FG_3SmGjkz55r-49" style="edgeStyle=orthogonalEdgeStyle;rounded=0;orthogonalLoop=1;jettySize=auto;html=1;exitX=1;exitY=0.5;exitDx=0;exitDy=0;entryX=0;entryY=0.5;entryDx=0;entryDy=0;" parent="2b4e8129b02d487f-2" source="_krw7o2FG_3SmGjkz55r-33" target="_krw7o2FG_3SmGjkz55r-34" edge="1">
          <mxGeometry relative="1" as="geometry" />
        </mxCell>
        <mxCell id="_krw7o2FG_3SmGjkz55r-33" value="&lt;b&gt;Start event:&lt;/b&gt;&lt;br&gt;&amp;nbsp;Amend divorce application" style="rounded=1;whiteSpace=wrap;html=1;shadow=0;labelBackgroundColor=none;strokeWidth=1;fontFamily=Verdana;fontSize=8;align=center;" parent="2b4e8129b02d487f-2" vertex="1">
          <mxGeometry x="1480" y="76.49999999999997" width="70" height="37" as="geometry" />
        </mxCell>
        <mxCell id="_krw7o2FG_3SmGjkz55r-50" style="edgeStyle=orthogonalEdgeStyle;rounded=0;orthogonalLoop=1;jettySize=auto;html=1;exitX=1;exitY=0.5;exitDx=0;exitDy=0;entryX=0;entryY=0.5;entryDx=0;entryDy=0;" parent="2b4e8129b02d487f-2" source="_krw7o2FG_3SmGjkz55r-34" target="_krw7o2FG_3SmGjkz55r-35" edge="1">
          <mxGeometry relative="1" as="geometry" />
        </mxCell>
        <mxCell id="_krw7o2FG_3SmGjkz55r-34" value="&lt;span&gt;Enter service method required&lt;/span&gt;" style="rounded=1;whiteSpace=wrap;html=1;shadow=0;labelBackgroundColor=none;strokeWidth=1;fontFamily=Verdana;fontSize=8;align=center;fontStyle=0" parent="2b4e8129b02d487f-2" vertex="1">
          <mxGeometry x="1570" y="76.49999999999997" width="70" height="37" as="geometry" />
        </mxCell>
        <mxCell id="_krw7o2FG_3SmGjkz55r-51" style="edgeStyle=orthogonalEdgeStyle;rounded=0;orthogonalLoop=1;jettySize=auto;html=1;exitX=1;exitY=0.5;exitDx=0;exitDy=0;entryX=0;entryY=0.5;entryDx=0;entryDy=0;" parent="2b4e8129b02d487f-2" source="_krw7o2FG_3SmGjkz55r-35" target="_krw7o2FG_3SmGjkz55r-36" edge="1">
          <mxGeometry relative="1" as="geometry" />
        </mxCell>
        <mxCell id="_krw7o2FG_3SmGjkz55r-35" value="&lt;span&gt;Confirm SOT and reconciliation&lt;/span&gt;" style="rounded=1;whiteSpace=wrap;html=1;shadow=0;labelBackgroundColor=none;strokeWidth=1;fontFamily=Verdana;fontSize=8;align=center;fontStyle=0" parent="2b4e8129b02d487f-2" vertex="1">
          <mxGeometry x="1670" y="76.49999999999997" width="70" height="37" as="geometry" />
        </mxCell>
        <mxCell id="_krw7o2FG_3SmGjkz55r-52" style="edgeStyle=orthogonalEdgeStyle;rounded=0;orthogonalLoop=1;jettySize=auto;html=1;exitX=1;exitY=0.5;exitDx=0;exitDy=0;entryX=0;entryY=0.5;entryDx=0;entryDy=0;" parent="2b4e8129b02d487f-2" source="_krw7o2FG_3SmGjkz55r-36" target="_krw7o2FG_3SmGjkz55r-38" edge="1">
          <mxGeometry relative="1" as="geometry" />
        </mxCell>
        <mxCell id="_krw7o2FG_3SmGjkz55r-36" value="&lt;span&gt;Enter &#39;your name&#39; and &#39;name of firm&#39;&lt;/span&gt;" style="rounded=1;whiteSpace=wrap;html=1;shadow=0;labelBackgroundColor=none;strokeWidth=1;fontFamily=Verdana;fontSize=8;align=center;fontStyle=0" parent="2b4e8129b02d487f-2" vertex="1">
          <mxGeometry x="1770" y="76.49999999999997" width="70" height="37" as="geometry" />
        </mxCell>
        <mxCell id="_krw7o2FG_3SmGjkz55r-38" value="&lt;b&gt;Finish event:&lt;/b&gt;&lt;br&gt;&amp;nbsp;Amend divorce application&lt;br&gt;&lt;b&gt;To state:&lt;/b&gt;&amp;nbsp;Submitted" style="rounded=1;whiteSpace=wrap;html=1;shadow=0;labelBackgroundColor=none;strokeWidth=1;fontFamily=Verdana;fontSize=8;align=center;" parent="2b4e8129b02d487f-2" vertex="1">
          <mxGeometry x="1880" y="68.25" width="70" height="53.5" as="geometry" />
        </mxCell>
        <mxCell id="_krw7o2FG_3SmGjkz55r-57" value="&lt;h6&gt;&lt;span style=&quot;font-size: 8px ; font-weight: 400&quot;&gt;Are digital co-respondents in scope?&lt;/span&gt;&lt;/h6&gt;" style="shape=note;whiteSpace=wrap;html=1;backgroundOutline=1;darkOpacity=0.05;size=12;fillColor=#FFFFCC;spacingRight=10;" parent="2b4e8129b02d487f-2" vertex="1">
          <mxGeometry x="920" y="6.5" width="100" height="50" as="geometry" />
        </mxCell>
        <mxCell id="5xeZqOf08oSWxwelz_sC-6" style="edgeStyle=orthogonalEdgeStyle;rounded=0;orthogonalLoop=1;jettySize=auto;html=1;exitX=1;exitY=0.5;exitDx=0;exitDy=0;entryX=0;entryY=0.5;entryDx=0;entryDy=0;entryPerimeter=0;" parent="2b4e8129b02d487f-2" source="_krw7o2FG_3SmGjkz55r-109" target="_krw7o2FG_3SmGjkz55r-16" edge="1">
          <mxGeometry relative="1" as="geometry" />
        </mxCell>
        <mxCell id="_krw7o2FG_3SmGjkz55r-109" value="&lt;span&gt;Enter respondent solicitor email&lt;/span&gt;" style="rounded=1;whiteSpace=wrap;html=1;shadow=0;labelBackgroundColor=none;strokeWidth=1;fontFamily=Verdana;fontSize=8;align=center;fontStyle=0" parent="2b4e8129b02d487f-2" vertex="1">
          <mxGeometry x="650" y="76.49999999999997" width="70" height="37" as="geometry" />
        </mxCell>
        <mxCell id="_krw7o2FG_3SmGjkz55r-113" style="edgeStyle=orthogonalEdgeStyle;rounded=0;orthogonalLoop=1;jettySize=auto;html=1;exitX=1;exitY=0.5;exitDx=0;exitDy=0;entryX=0;entryY=0.5;entryDx=0;entryDy=0;" parent="2b4e8129b02d487f-2" source="_krw7o2FG_3SmGjkz55r-111" target="_krw7o2FG_3SmGjkz55r-31" edge="1">
          <mxGeometry relative="1" as="geometry" />
        </mxCell>
        <mxCell id="_krw7o2FG_3SmGjkz55r-111" value="Enter co-respondent solicitor email" style="rounded=1;whiteSpace=wrap;html=1;shadow=0;labelBackgroundColor=none;strokeWidth=1;fontFamily=Verdana;fontSize=8;align=center;" parent="2b4e8129b02d487f-2" vertex="1">
          <mxGeometry x="1290" y="76.49999999999997" width="70" height="37" as="geometry" />
        </mxCell>
        <mxCell id="_krw7o2FG_3SmGjkz55r-135" value="&lt;h6&gt;&lt;span style=&quot;font-size: 8px ; font-weight: 400&quot;&gt;Should there be the ability to nominate an unregistered respondent solicitor?&lt;/span&gt;&lt;br&gt;&lt;/h6&gt;" style="shape=note;whiteSpace=wrap;html=1;backgroundOutline=1;darkOpacity=0.05;size=12;fillColor=#FFFFCC;spacingRight=10;" parent="2b4e8129b02d487f-2" vertex="1">
          <mxGeometry x="1040" y="121.75" width="100" height="50" as="geometry" />
        </mxCell>
        <mxCell id="_krw7o2FG_3SmGjkz55r-26" style="edgeStyle=orthogonalEdgeStyle;rounded=0;orthogonalLoop=1;jettySize=auto;html=1;exitX=0.5;exitY=0;exitDx=0;exitDy=0;exitPerimeter=0;" parent="2b4e8129b02d487f-2" source="_krw7o2FG_3SmGjkz55r-12" edge="1">
          <mxGeometry relative="1" as="geometry">
            <mxPoint x="495" y="70" as="sourcePoint" />
            <mxPoint x="590" y="77" as="targetPoint" />
            <Array as="points">
              <mxPoint x="480" y="50" />
              <mxPoint x="590" y="50" />
              <mxPoint x="590" y="77" />
            </Array>
          </mxGeometry>
        </mxCell>
        <mxCell id="_krw7o2FG_3SmGjkz55r-29" value="Yes" style="edgeLabel;html=1;align=center;verticalAlign=middle;resizable=0;points=[];" parent="_krw7o2FG_3SmGjkz55r-26" vertex="1" connectable="0">
          <mxGeometry x="-0.5803" relative="1" as="geometry">
            <mxPoint as="offset" />
          </mxGeometry>
        </mxCell>
        <mxCell id="5xeZqOf08oSWxwelz_sC-5" value="&lt;h6&gt;&lt;span style=&quot;font-size: 8px ; font-weight: 400&quot;&gt;The lookup does not return the address details to the case, so these still need to be entered&lt;/span&gt;&lt;/h6&gt;" style="shape=note;whiteSpace=wrap;html=1;backgroundOutline=1;darkOpacity=0.05;size=12;fillColor=#FFFFCC;spacingRight=10;" parent="2b4e8129b02d487f-2" vertex="1">
          <mxGeometry x="520" y="4" width="80" height="60" as="geometry" />
        </mxCell>
        <mxCell id="5xeZqOf08oSWxwelz_sC-7" value="&lt;h6&gt;&lt;span style=&quot;font-size: 8px ; font-weight: 400&quot;&gt;This is still required, as no email address is returned from organisation look-up&lt;/span&gt;&lt;/h6&gt;" style="shape=note;whiteSpace=wrap;html=1;backgroundOutline=1;darkOpacity=0.05;size=12;fillColor=#FFFFCC;spacingRight=10;" parent="2b4e8129b02d487f-2" vertex="1">
          <mxGeometry x="640" y="6.5" width="80" height="60" as="geometry" />
        </mxCell>
        <mxCell id="5xeZqOf08oSWxwelz_sC-8" value="&lt;h6&gt;&lt;span style=&quot;font-size: 8px ; font-weight: 400&quot;&gt;The lookup does not return the address details to the case, so these still need to be entered&lt;/span&gt;&lt;/h6&gt;" style="shape=note;whiteSpace=wrap;html=1;backgroundOutline=1;darkOpacity=0.05;size=12;fillColor=#FFFFCC;spacingRight=10;" parent="2b4e8129b02d487f-2" vertex="1">
          <mxGeometry x="1150" y="4" width="80" height="60" as="geometry" />
        </mxCell>
        <mxCell id="5xeZqOf08oSWxwelz_sC-62" value="&lt;h6&gt;&lt;span style=&quot;font-size: 8px ; font-weight: 400&quot;&gt;Can / should the petitioner solicitor be able&amp;nbsp; to proceed if they cannot find the respondent sol on the search?&lt;/span&gt;&lt;/h6&gt;" style="shape=note;whiteSpace=wrap;html=1;backgroundOutline=1;darkOpacity=0.05;size=12;fillColor=#FFFFCC;spacingRight=10;" parent="2b4e8129b02d487f-2" vertex="1">
          <mxGeometry x="340" y="117" width="100" height="60" as="geometry" />
        </mxCell>
        <mxCell id="5xeZqOf08oSWxwelz_sC-69" value="&lt;h6&gt;&lt;span style=&quot;font-size: 8px ; font-weight: 400&quot;&gt;May be possible to copy across name and organisation so that user does not need to enter again (and then add a tickbox)&lt;/span&gt;&lt;/h6&gt;" style="shape=note;whiteSpace=wrap;html=1;backgroundOutline=1;darkOpacity=0.05;size=12;fillColor=#FFFFCC;spacingRight=10;" parent="2b4e8129b02d487f-2" vertex="1">
          <mxGeometry x="1755" y="16.5" width="100" height="53.5" as="geometry" />
        </mxCell>
        <mxCell id="p6Xr37g33TZ3pclMuA7w-15" value="&lt;h6&gt;&lt;span style=&quot;font-size: 8px ; font-weight: 400&quot;&gt;Potentially can be automated? Further conversation,&lt;/span&gt;&lt;/h6&gt;" style="shape=note;whiteSpace=wrap;html=1;backgroundOutline=1;darkOpacity=0.05;size=12;fillColor=#dae8fc;spacingRight=10;strokeColor=#6c8ebf;" parent="2b4e8129b02d487f-2" vertex="1">
          <mxGeometry x="120" y="117" width="90" height="53" as="geometry" />
        </mxCell>
        <mxCell id="2b4e8129b02d487f-3" value="Caseworker" style="swimlane;html=1;startSize=30;horizontal=0;" parent="2b4e8129b02d487f-1" vertex="1">
          <mxGeometry y="203.5" width="2140" height="150" as="geometry" />
        </mxCell>
        <mxCell id="_krw7o2FG_3SmGjkz55r-68" style="edgeStyle=orthogonalEdgeStyle;rounded=0;orthogonalLoop=1;jettySize=auto;html=1;exitX=1;exitY=0.5;exitDx=0;exitDy=0;entryX=0;entryY=0.5;entryDx=0;entryDy=0;entryPerimeter=0;" parent="2b4e8129b02d487f-3" source="2b4e8129b02d487f-12" target="_krw7o2FG_3SmGjkz55r-58" edge="1">
          <mxGeometry relative="1" as="geometry" />
        </mxCell>
        <mxCell id="2b4e8129b02d487f-12" value="Event:&lt;br&gt;Issue&amp;nbsp;" style="rounded=1;whiteSpace=wrap;html=1;shadow=0;labelBackgroundColor=none;strokeWidth=1;fontFamily=Verdana;fontSize=8;align=center;" parent="2b4e8129b02d487f-3" vertex="1">
          <mxGeometry x="40" y="20" width="70" height="40" as="geometry" />
        </mxCell>
        <mxCell id="_krw7o2FG_3SmGjkz55r-69" style="edgeStyle=orthogonalEdgeStyle;rounded=0;orthogonalLoop=1;jettySize=auto;html=1;exitX=1;exitY=0.5;exitDx=0;exitDy=0;exitPerimeter=0;entryX=0;entryY=0.5;entryDx=0;entryDy=0;" parent="2b4e8129b02d487f-3" source="_krw7o2FG_3SmGjkz55r-58" target="_krw7o2FG_3SmGjkz55r-60" edge="1">
          <mxGeometry relative="1" as="geometry">
            <mxPoint x="250" y="39" as="targetPoint" />
            <Array as="points">
              <mxPoint x="250" y="40" />
              <mxPoint x="250" y="40" />
            </Array>
          </mxGeometry>
        </mxCell>
        <mxCell id="5xeZqOf08oSWxwelz_sC-11" value="Court&lt;br&gt;&amp;nbsp;service" style="edgeLabel;html=1;align=center;verticalAlign=middle;resizable=0;points=[];" parent="_krw7o2FG_3SmGjkz55r-69" vertex="1" connectable="0">
          <mxGeometry x="-0.5619" y="-4" relative="1" as="geometry">
            <mxPoint x="5" y="-4" as="offset" />
          </mxGeometry>
        </mxCell>
        <mxCell id="_krw7o2FG_3SmGjkz55r-70" style="edgeStyle=orthogonalEdgeStyle;rounded=0;orthogonalLoop=1;jettySize=auto;html=1;exitX=0.5;exitY=1;exitDx=0;exitDy=0;exitPerimeter=0;entryX=0;entryY=0.5;entryDx=0;entryDy=0;" parent="2b4e8129b02d487f-3" source="_krw7o2FG_3SmGjkz55r-58" target="_krw7o2FG_3SmGjkz55r-61" edge="1">
          <mxGeometry relative="1" as="geometry" />
        </mxCell>
        <mxCell id="5xeZqOf08oSWxwelz_sC-10" value="Personal &lt;br&gt;service" style="edgeLabel;html=1;align=center;verticalAlign=middle;resizable=0;points=[];" parent="_krw7o2FG_3SmGjkz55r-70" vertex="1" connectable="0">
          <mxGeometry x="-0.1232" y="1" relative="1" as="geometry">
            <mxPoint as="offset" />
          </mxGeometry>
        </mxCell>
        <mxCell id="_krw7o2FG_3SmGjkz55r-58" value="What &lt;br&gt;service type did solicitor &lt;br&gt;request?" style="strokeWidth=1;html=1;shape=mxgraph.flowchart.decision;whiteSpace=wrap;rounded=1;shadow=0;labelBackgroundColor=none;fontFamily=Verdana;fontSize=8;align=center;" parent="2b4e8129b02d487f-3" vertex="1">
          <mxGeometry x="130" y="15" width="80" height="50" as="geometry" />
        </mxCell>
        <mxCell id="_krw7o2FG_3SmGjkz55r-72" style="edgeStyle=orthogonalEdgeStyle;rounded=0;orthogonalLoop=1;jettySize=auto;html=1;exitX=1;exitY=0.5;exitDx=0;exitDy=0;" parent="2b4e8129b02d487f-3" source="_krw7o2FG_3SmGjkz55r-60" target="_krw7o2FG_3SmGjkz55r-71" edge="1">
          <mxGeometry relative="1" as="geometry">
            <Array as="points">
              <mxPoint x="380" y="39" />
              <mxPoint x="525" y="39" />
            </Array>
          </mxGeometry>
        </mxCell>
        <mxCell id="_krw7o2FG_3SmGjkz55r-60" value="&lt;b&gt;Event:&lt;/b&gt;&lt;br&gt;&amp;nbsp;Issue AOS pack to respondent&amp;nbsp;&amp;nbsp;" style="rounded=1;whiteSpace=wrap;html=1;shadow=0;labelBackgroundColor=none;strokeWidth=1;fontFamily=Verdana;fontSize=8;align=center;" parent="2b4e8129b02d487f-3" vertex="1">
          <mxGeometry x="280" y="21.5" width="70" height="37" as="geometry" />
        </mxCell>
        <mxCell id="_krw7o2FG_3SmGjkz55r-74" style="edgeStyle=orthogonalEdgeStyle;rounded=0;orthogonalLoop=1;jettySize=auto;html=1;exitX=1;exitY=0.5;exitDx=0;exitDy=0;" parent="2b4e8129b02d487f-3" source="_krw7o2FG_3SmGjkz55r-61" target="_krw7o2FG_3SmGjkz55r-66" edge="1">
          <mxGeometry relative="1" as="geometry" />
        </mxCell>
        <mxCell id="_krw7o2FG_3SmGjkz55r-61" value="&lt;b&gt;Event:&lt;/b&gt;&lt;br&gt;&amp;nbsp;Issue Personal Service Pack&lt;br&gt;&lt;b&gt;to state: &lt;/b&gt;Awaiting Service" style="rounded=1;whiteSpace=wrap;html=1;shadow=0;labelBackgroundColor=none;strokeWidth=1;fontFamily=Verdana;fontSize=8;align=center;" parent="2b4e8129b02d487f-3" vertex="1">
          <mxGeometry x="280" y="83" width="70" height="47" as="geometry" />
        </mxCell>
        <mxCell id="5xeZqOf08oSWxwelz_sC-12" style="edgeStyle=orthogonalEdgeStyle;rounded=0;orthogonalLoop=1;jettySize=auto;html=1;exitX=1;exitY=0.5;exitDx=0;exitDy=0;entryX=0;entryY=0.5;entryDx=0;entryDy=0;" parent="2b4e8129b02d487f-3" source="_krw7o2FG_3SmGjkz55r-66" target="_krw7o2FG_3SmGjkz55r-71" edge="1">
          <mxGeometry relative="1" as="geometry" />
        </mxCell>
        <mxCell id="_krw7o2FG_3SmGjkz55r-66" value="&lt;b&gt;Event:&lt;/b&gt;&lt;br&gt;&amp;nbsp;Confirm service" style="rounded=1;whiteSpace=wrap;html=1;shadow=0;labelBackgroundColor=none;strokeWidth=1;fontFamily=Verdana;fontSize=8;align=center;" parent="2b4e8129b02d487f-3" vertex="1">
          <mxGeometry x="380" y="88" width="70" height="37" as="geometry" />
        </mxCell>
        <mxCell id="_krw7o2FG_3SmGjkz55r-67" value="&lt;h6&gt;&lt;span style=&quot;font-size: 8px ; font-weight: 400&quot;&gt;Respondent AOS invitation letter / Co-respondent AOS invitation letter generated - these still have pin details in &#39;how to respond&#39;&lt;/span&gt;&lt;/h6&gt;" style="shape=note;whiteSpace=wrap;html=1;backgroundOutline=1;darkOpacity=0.05;size=12;fillColor=#FFFFCC;spacingRight=10;" parent="2b4e8129b02d487f-3" vertex="1">
          <mxGeometry x="40" y="90" width="120" height="50" as="geometry" />
        </mxCell>
        <mxCell id="_krw7o2FG_3SmGjkz55r-71" value="&lt;b&gt;State:&lt;/b&gt;&lt;br&gt;&amp;nbsp;Awaiting AOS" style="rounded=1;whiteSpace=wrap;html=1;shadow=0;labelBackgroundColor=none;strokeWidth=1;fontFamily=Verdana;fontSize=8;align=center;" parent="2b4e8129b02d487f-3" vertex="1">
          <mxGeometry x="490" y="88" width="70" height="37" as="geometry" />
        </mxCell>
        <mxCell id="_krw7o2FG_3SmGjkz55r-114" value="&lt;h6&gt;&lt;span style=&quot;font-size: 8px ; font-weight: 400&quot;&gt;Send email to AOS solicitor email... in order to respond need to be assigned to the case... (look on tab and download doc....)&lt;/span&gt;&lt;/h6&gt;" style="shape=note;whiteSpace=wrap;html=1;backgroundOutline=1;darkOpacity=0.05;size=12;fillColor=#FFFFCC;spacingRight=10;" parent="2b4e8129b02d487f-3" vertex="1">
          <mxGeometry x="540" y="21.5" width="110" height="58.5" as="geometry" />
        </mxCell>
        <mxCell id="5xeZqOf08oSWxwelz_sC-44" value="&lt;h6&gt;&lt;span style=&quot;font-size: 8px ; font-weight: 400&quot;&gt;What is the value of personal service, if a rep organisation has been nominated?&lt;/span&gt;&lt;/h6&gt;" style="shape=note;whiteSpace=wrap;html=1;backgroundOutline=1;darkOpacity=0.05;size=12;fillColor=#FFFFCC;spacingRight=10;" parent="2b4e8129b02d487f-3" vertex="1">
          <mxGeometry x="690" y="40" width="120" height="50" as="geometry" />
        </mxCell>
        <mxCell id="p6Xr37g33TZ3pclMuA7w-13" value="&lt;h6&gt;&lt;span style=&quot;font-size: 8px ; font-weight: 400&quot;&gt;Regardless of if represented or not and paper or not, its the same event that is triggered&lt;/span&gt;&lt;/h6&gt;" style="shape=note;whiteSpace=wrap;html=1;backgroundOutline=1;darkOpacity=0.05;size=12;fillColor=#FFFFCC;spacingRight=10;" parent="2b4e8129b02d487f-3" vertex="1">
          <mxGeometry x="370" y="20" width="110" height="58.5" as="geometry" />
        </mxCell>
        <mxCell id="p6Xr37g33TZ3pclMuA7w-14" value="&lt;h6&gt;&lt;span style=&quot;font-size: 8px ; font-weight: 400&quot;&gt;Call out clearly in CCD (AOS tab) whether a resp sol is registered or not, to support and queries&lt;/span&gt;&lt;/h6&gt;" style="shape=note;whiteSpace=wrap;html=1;backgroundOutline=1;darkOpacity=0.05;size=12;fillColor=#dae8fc;spacingRight=10;strokeColor=#6c8ebf;" parent="2b4e8129b02d487f-3" vertex="1">
          <mxGeometry x="600" y="90" width="110" height="58.5" as="geometry" />
        </mxCell>
        <mxCell id="2b4e8129b02d487f-4" value="Respondent &lt;br&gt;Organisation Administrator&amp;nbsp;" style="swimlane;html=1;startSize=30;horizontal=0;" parent="2b4e8129b02d487f-1" vertex="1">
          <mxGeometry y="353.5" width="2140" height="140" as="geometry" />
        </mxCell>
        <mxCell id="p6Xr37g33TZ3pclMuA7w-2" style="edgeStyle=orthogonalEdgeStyle;rounded=0;orthogonalLoop=1;jettySize=auto;html=1;exitX=1;exitY=0.5;exitDx=0;exitDy=0;entryX=0;entryY=0.5;entryDx=0;entryDy=0;" parent="2b4e8129b02d487f-4" source="2b4e8129b02d487f-14" target="p6Xr37g33TZ3pclMuA7w-1" edge="1">
          <mxGeometry relative="1" as="geometry" />
        </mxCell>
        <mxCell id="2b4e8129b02d487f-14" value="Navigate to unassigned cases" style="rounded=1;whiteSpace=wrap;html=1;shadow=0;labelBackgroundColor=none;strokeWidth=1;fontFamily=Verdana;fontSize=8;align=center;" parent="2b4e8129b02d487f-4" vertex="1">
          <mxGeometry x="600" y="23.00000000000003" width="70" height="37" as="geometry" />
        </mxCell>
        <mxCell id="5xeZqOf08oSWxwelz_sC-64" value="&lt;h6&gt;&lt;span style=&quot;font-size: 8px ; font-weight: 400&quot;&gt;Does not receive any notifications based on role&lt;/span&gt;&lt;/h6&gt;" style="shape=note;whiteSpace=wrap;html=1;backgroundOutline=1;darkOpacity=0.05;size=12;fillColor=#FFFFCC;spacingRight=10;" parent="2b4e8129b02d487f-4" vertex="1">
          <mxGeometry x="530" y="80" width="70" height="51.5" as="geometry" />
        </mxCell>
        <mxCell id="5xeZqOf08oSWxwelz_sC-70" value="&lt;h6&gt;&lt;span style=&quot;font-size: 8px ; font-weight: 400&quot;&gt;Turn off AOS respondent letter if the respondent solicitor is&amp;nbsp; &amp;nbsp;&amp;nbsp;&lt;/span&gt;&lt;/h6&gt;" style="shape=note;whiteSpace=wrap;html=1;backgroundOutline=1;darkOpacity=0.05;size=12;fillColor=#FFFFCC;spacingRight=10;" parent="2b4e8129b02d487f-4" vertex="1">
          <mxGeometry x="50" y="10" width="120" height="50" as="geometry" />
        </mxCell>
        <mxCell id="p6Xr37g33TZ3pclMuA7w-1" value="Assign case to solicitor(s) in my firm" style="rounded=1;whiteSpace=wrap;html=1;shadow=0;labelBackgroundColor=none;strokeWidth=1;fontFamily=Verdana;fontSize=8;align=center;" parent="2b4e8129b02d487f-4" vertex="1">
          <mxGeometry x="690" y="23" width="70" height="37" as="geometry" />
        </mxCell>
        <mxCell id="_krw7o2FG_3SmGjkz55r-106" style="edgeStyle=orthogonalEdgeStyle;rounded=0;orthogonalLoop=1;jettySize=auto;html=1;exitX=1;exitY=0.5;exitDx=0;exitDy=0;entryX=0;entryY=0.5;entryDx=0;entryDy=0;" parent="2b4e8129b02d487f-1" source="_krw7o2FG_3SmGjkz55r-71" target="2b4e8129b02d487f-14" edge="1">
          <mxGeometry relative="1" as="geometry" />
        </mxCell>
        <mxCell id="5xeZqOf08oSWxwelz_sC-9" style="edgeStyle=orthogonalEdgeStyle;rounded=0;orthogonalLoop=1;jettySize=auto;html=1;exitX=0.5;exitY=1;exitDx=0;exitDy=0;entryX=0.5;entryY=0;entryDx=0;entryDy=0;" parent="2b4e8129b02d487f-1" source="_krw7o2FG_3SmGjkz55r-38" target="2b4e8129b02d487f-12" edge="1">
          <mxGeometry relative="1" as="geometry">
            <Array as="points">
              <mxPoint x="1915" y="210" />
              <mxPoint x="75" y="210" />
            </Array>
          </mxGeometry>
        </mxCell>
        <mxCell id="_krw7o2FG_3SmGjkz55r-1" value="Respondent solicitor(s)" style="swimlane;html=1;startSize=30;horizontal=0;" parent="1" vertex="1">
          <mxGeometry x="40" y="550" width="2140" height="150" as="geometry" />
        </mxCell>
        <mxCell id="p6Xr37g33TZ3pclMuA7w-6" style="edgeStyle=orthogonalEdgeStyle;rounded=0;orthogonalLoop=1;jettySize=auto;html=1;exitX=1;exitY=0.5;exitDx=0;exitDy=0;entryX=0;entryY=0.5;entryDx=0;entryDy=0;" parent="_krw7o2FG_3SmGjkz55r-1" source="_krw7o2FG_3SmGjkz55r-3" target="_krw7o2FG_3SmGjkz55r-116" edge="1">
          <mxGeometry relative="1" as="geometry" />
        </mxCell>
        <mxCell id="_krw7o2FG_3SmGjkz55r-3" value="Navigate to cases in &#39;Awaiting AOS&#39; state" style="rounded=1;whiteSpace=wrap;html=1;shadow=0;labelBackgroundColor=none;strokeWidth=1;fontFamily=Verdana;fontSize=8;align=center;" parent="_krw7o2FG_3SmGjkz55r-1" vertex="1">
          <mxGeometry x="760" y="56.50000000000003" width="70" height="37" as="geometry" />
        </mxCell>
        <mxCell id="p6Xr37g33TZ3pclMuA7w-7" style="edgeStyle=orthogonalEdgeStyle;rounded=0;orthogonalLoop=1;jettySize=auto;html=1;exitX=1;exitY=0.5;exitDx=0;exitDy=0;entryX=0;entryY=0.5;entryDx=0;entryDy=0;" parent="_krw7o2FG_3SmGjkz55r-1" source="_krw7o2FG_3SmGjkz55r-76" target="_krw7o2FG_3SmGjkz55r-117" edge="1">
          <mxGeometry relative="1" as="geometry" />
        </mxCell>
        <mxCell id="_krw7o2FG_3SmGjkz55r-76" value="Add / update email address" style="rounded=1;whiteSpace=wrap;html=1;shadow=0;labelBackgroundColor=none;strokeWidth=1;fontFamily=Verdana;fontSize=8;align=center;" parent="_krw7o2FG_3SmGjkz55r-1" vertex="1">
          <mxGeometry x="1029" y="56.25" width="70" height="37" as="geometry" />
        </mxCell>
        <mxCell id="p6Xr37g33TZ3pclMuA7w-5" style="edgeStyle=orthogonalEdgeStyle;rounded=0;orthogonalLoop=1;jettySize=auto;html=1;exitX=1;exitY=0.5;exitDx=0;exitDy=0;" parent="_krw7o2FG_3SmGjkz55r-1" source="_krw7o2FG_3SmGjkz55r-77" target="_krw7o2FG_3SmGjkz55r-76" edge="1">
          <mxGeometry relative="1" as="geometry" />
        </mxCell>
        <mxCell id="_krw7o2FG_3SmGjkz55r-77" value="&lt;b&gt;Start event: &lt;br&gt;&lt;/b&gt;Draft AOS" style="rounded=1;whiteSpace=wrap;html=1;shadow=0;labelBackgroundColor=none;strokeWidth=1;fontFamily=Verdana;fontSize=8;align=center;" parent="_krw7o2FG_3SmGjkz55r-1" vertex="1">
          <mxGeometry x="939" y="56.5" width="70" height="37" as="geometry" />
        </mxCell>
        <mxCell id="_krw7o2FG_3SmGjkz55r-102" style="edgeStyle=orthogonalEdgeStyle;rounded=0;orthogonalLoop=1;jettySize=auto;html=1;exitX=0.5;exitY=1;exitDx=0;exitDy=0;entryX=0.5;entryY=1;entryDx=0;entryDy=0;entryPerimeter=0;" parent="_krw7o2FG_3SmGjkz55r-1" source="_krw7o2FG_3SmGjkz55r-79" target="_krw7o2FG_3SmGjkz55r-100" edge="1">
          <mxGeometry relative="1" as="geometry">
            <Array as="points">
              <mxPoint x="1715" y="140" />
              <mxPoint x="1610" y="140" />
            </Array>
          </mxGeometry>
        </mxCell>
        <mxCell id="_krw7o2FG_3SmGjkz55r-79" value="Event: &lt;br&gt;Update AOS&lt;br&gt;(no change to state)" style="rounded=1;whiteSpace=wrap;html=1;shadow=0;labelBackgroundColor=none;strokeWidth=1;fontFamily=Verdana;fontSize=8;align=center;" parent="_krw7o2FG_3SmGjkz55r-1" vertex="1">
          <mxGeometry x="1680" y="95.5" width="70" height="37" as="geometry" />
        </mxCell>
        <mxCell id="_krw7o2FG_3SmGjkz55r-89" style="edgeStyle=orthogonalEdgeStyle;rounded=0;orthogonalLoop=1;jettySize=auto;html=1;exitX=1;exitY=0.5;exitDx=0;exitDy=0;entryX=0;entryY=0.5;entryDx=0;entryDy=0;entryPerimeter=0;" parent="_krw7o2FG_3SmGjkz55r-1" source="_krw7o2FG_3SmGjkz55r-80" target="_krw7o2FG_3SmGjkz55r-88" edge="1">
          <mxGeometry relative="1" as="geometry" />
        </mxCell>
        <mxCell id="_krw7o2FG_3SmGjkz55r-80" value="&lt;b&gt;Event:&lt;/b&gt; &lt;br&gt;Submit AOS&lt;br&gt;&lt;b&gt;To state:&lt;/b&gt; AosPresubmit" style="rounded=1;whiteSpace=wrap;html=1;shadow=0;labelBackgroundColor=none;strokeWidth=1;fontFamily=Verdana;fontSize=8;align=center;" parent="_krw7o2FG_3SmGjkz55r-1" vertex="1">
          <mxGeometry x="1760" y="56.5" width="70" height="37" as="geometry" />
        </mxCell>
        <mxCell id="_krw7o2FG_3SmGjkz55r-93" style="edgeStyle=orthogonalEdgeStyle;rounded=0;orthogonalLoop=1;jettySize=auto;html=1;exitX=1;exitY=0.5;exitDx=0;exitDy=0;exitPerimeter=0;entryX=0;entryY=0.5;entryDx=0;entryDy=0;" parent="_krw7o2FG_3SmGjkz55r-1" source="_krw7o2FG_3SmGjkz55r-88" target="_krw7o2FG_3SmGjkz55r-91" edge="1">
          <mxGeometry relative="1" as="geometry" />
        </mxCell>
        <mxCell id="5xeZqOf08oSWxwelz_sC-43" value="No admission &lt;br&gt;/ consent" style="edgeLabel;html=1;align=center;verticalAlign=middle;resizable=0;points=[];" parent="_krw7o2FG_3SmGjkz55r-93" vertex="1" connectable="0">
          <mxGeometry x="-0.3251" y="-1" relative="1" as="geometry">
            <mxPoint as="offset" />
          </mxGeometry>
        </mxCell>
        <mxCell id="_krw7o2FG_3SmGjkz55r-121" style="edgeStyle=orthogonalEdgeStyle;rounded=0;orthogonalLoop=1;jettySize=auto;html=1;exitX=0.5;exitY=0;exitDx=0;exitDy=0;exitPerimeter=0;entryX=0;entryY=0.5;entryDx=0;entryDy=0;" parent="_krw7o2FG_3SmGjkz55r-1" source="_krw7o2FG_3SmGjkz55r-88" target="_krw7o2FG_3SmGjkz55r-90" edge="1">
          <mxGeometry relative="1" as="geometry">
            <mxPoint x="1959.9999999999995" y="30" as="targetPoint" />
            <Array as="points">
              <mxPoint x="1910" y="28" />
            </Array>
          </mxGeometry>
        </mxCell>
        <mxCell id="5xeZqOf08oSWxwelz_sC-21" value="Defended" style="edgeLabel;html=1;align=center;verticalAlign=middle;resizable=0;points=[];" parent="_krw7o2FG_3SmGjkz55r-121" vertex="1" connectable="0">
          <mxGeometry x="-0.0812" y="-2" relative="1" as="geometry">
            <mxPoint as="offset" />
          </mxGeometry>
        </mxCell>
        <mxCell id="_krw7o2FG_3SmGjkz55r-122" value="Undefended" style="edgeStyle=orthogonalEdgeStyle;rounded=0;orthogonalLoop=1;jettySize=auto;html=1;exitX=0.5;exitY=1;exitDx=0;exitDy=0;exitPerimeter=0;entryX=0;entryY=0.5;entryDx=0;entryDy=0;" parent="_krw7o2FG_3SmGjkz55r-1" source="_krw7o2FG_3SmGjkz55r-88" target="_krw7o2FG_3SmGjkz55r-92" edge="1">
          <mxGeometry relative="1" as="geometry">
            <mxPoint x="1989.9999999999995" y="123.24999999999977" as="targetPoint" />
            <Array as="points">
              <mxPoint x="1910" y="123" />
            </Array>
          </mxGeometry>
        </mxCell>
        <mxCell id="_krw7o2FG_3SmGjkz55r-88" value="Defended of undefended?" style="strokeWidth=1;html=1;shape=mxgraph.flowchart.decision;whiteSpace=wrap;rounded=1;shadow=0;labelBackgroundColor=none;fontFamily=Verdana;fontSize=8;align=center;" parent="_krw7o2FG_3SmGjkz55r-1" vertex="1">
          <mxGeometry x="1870" y="51" width="80" height="50" as="geometry" />
        </mxCell>
        <mxCell id="_krw7o2FG_3SmGjkz55r-90" value="&lt;b&gt;State:&lt;/b&gt;&lt;br&gt;AosSubmitted&lt;br&gt;AwaitingAnswers" style="rounded=1;whiteSpace=wrap;html=1;shadow=0;labelBackgroundColor=none;strokeWidth=1;fontFamily=Verdana;fontSize=8;align=center;" parent="_krw7o2FG_3SmGjkz55r-1" vertex="1">
          <mxGeometry x="2040" y="9" width="70" height="37" as="geometry" />
        </mxCell>
        <mxCell id="_krw7o2FG_3SmGjkz55r-91" value="&lt;b&gt;State:&amp;nbsp;&lt;/b&gt;&lt;br&gt;AosCompleted" style="rounded=1;whiteSpace=wrap;html=1;shadow=0;labelBackgroundColor=none;strokeWidth=1;fontFamily=Verdana;fontSize=8;align=center;" parent="_krw7o2FG_3SmGjkz55r-1" vertex="1">
          <mxGeometry x="2040" y="57.25" width="70" height="37" as="geometry" />
        </mxCell>
        <mxCell id="_krw7o2FG_3SmGjkz55r-92" value="&lt;b&gt;State:&lt;/b&gt; AwaitingDecree&lt;br&gt;Nisi" style="rounded=1;whiteSpace=wrap;html=1;shadow=0;labelBackgroundColor=none;strokeWidth=1;fontFamily=Verdana;fontSize=8;align=center;" parent="_krw7o2FG_3SmGjkz55r-1" vertex="1">
          <mxGeometry x="2040" y="104" width="70" height="37" as="geometry" />
        </mxCell>
        <mxCell id="_krw7o2FG_3SmGjkz55r-103" style="edgeStyle=orthogonalEdgeStyle;rounded=0;orthogonalLoop=1;jettySize=auto;html=1;exitX=0.5;exitY=0;exitDx=0;exitDy=0;exitPerimeter=0;entryX=0.5;entryY=0;entryDx=0;entryDy=0;" parent="_krw7o2FG_3SmGjkz55r-1" source="_krw7o2FG_3SmGjkz55r-100" target="_krw7o2FG_3SmGjkz55r-80" edge="1">
          <mxGeometry relative="1" as="geometry">
            <mxPoint x="1619.9999999999995" y="50" as="sourcePoint" />
            <Array as="points">
              <mxPoint x="1610" y="37" />
              <mxPoint x="1795" y="37" />
            </Array>
          </mxGeometry>
        </mxCell>
        <mxCell id="5xeZqOf08oSWxwelz_sC-20" value="No update required" style="edgeLabel;html=1;align=center;verticalAlign=middle;resizable=0;points=[];" parent="_krw7o2FG_3SmGjkz55r-103" vertex="1" connectable="0">
          <mxGeometry x="-0.7701" y="1" relative="1" as="geometry">
            <mxPoint x="38" as="offset" />
          </mxGeometry>
        </mxCell>
        <mxCell id="5xeZqOf08oSWxwelz_sC-18" style="edgeStyle=orthogonalEdgeStyle;rounded=0;orthogonalLoop=1;jettySize=auto;html=1;exitX=1;exitY=0.5;exitDx=0;exitDy=0;exitPerimeter=0;entryX=0.5;entryY=0;entryDx=0;entryDy=0;" parent="_krw7o2FG_3SmGjkz55r-1" source="_krw7o2FG_3SmGjkz55r-100" target="_krw7o2FG_3SmGjkz55r-79" edge="1">
          <mxGeometry relative="1" as="geometry" />
        </mxCell>
        <mxCell id="5xeZqOf08oSWxwelz_sC-19" value="Update" style="edgeLabel;html=1;align=center;verticalAlign=middle;resizable=0;points=[];" parent="5xeZqOf08oSWxwelz_sC-18" vertex="1" connectable="0">
          <mxGeometry x="-0.6218" y="-2" relative="1" as="geometry">
            <mxPoint x="14.17" y="-2.25" as="offset" />
          </mxGeometry>
        </mxCell>
        <mxCell id="_krw7o2FG_3SmGjkz55r-100" value="Does &lt;br&gt;the AOS response need &lt;br&gt;updating?" style="strokeWidth=1;html=1;shape=mxgraph.flowchart.decision;whiteSpace=wrap;rounded=1;shadow=0;labelBackgroundColor=none;fontFamily=Verdana;fontSize=8;align=center;" parent="_krw7o2FG_3SmGjkz55r-1" vertex="1">
          <mxGeometry x="1570" y="50" width="80" height="50" as="geometry" />
        </mxCell>
        <mxCell id="_krw7o2FG_3SmGjkz55r-127" style="edgeStyle=orthogonalEdgeStyle;rounded=0;orthogonalLoop=1;jettySize=auto;html=1;exitX=1;exitY=0.5;exitDx=0;exitDy=0;entryX=0;entryY=0.5;entryDx=0;entryDy=0;" parent="_krw7o2FG_3SmGjkz55r-1" source="_krw7o2FG_3SmGjkz55r-116" target="_krw7o2FG_3SmGjkz55r-77" edge="1">
          <mxGeometry relative="1" as="geometry" />
        </mxCell>
        <mxCell id="_krw7o2FG_3SmGjkz55r-116" value="Read divorce petition" style="rounded=1;whiteSpace=wrap;html=1;shadow=0;labelBackgroundColor=none;strokeWidth=1;fontFamily=Verdana;fontSize=8;align=center;" parent="_krw7o2FG_3SmGjkz55r-1" vertex="1">
          <mxGeometry x="850" y="56.5" width="70" height="37" as="geometry" />
        </mxCell>
        <mxCell id="_krw7o2FG_3SmGjkz55r-129" style="edgeStyle=orthogonalEdgeStyle;rounded=0;orthogonalLoop=1;jettySize=auto;html=1;exitX=1;exitY=0.5;exitDx=0;exitDy=0;entryX=0;entryY=0.5;entryDx=0;entryDy=0;" parent="_krw7o2FG_3SmGjkz55r-1" source="_krw7o2FG_3SmGjkz55r-117" target="_krw7o2FG_3SmGjkz55r-120" edge="1">
          <mxGeometry relative="1" as="geometry" />
        </mxCell>
        <mxCell id="_krw7o2FG_3SmGjkz55r-117" value="Acknowledge divorce application" style="rounded=1;whiteSpace=wrap;html=1;shadow=0;labelBackgroundColor=none;strokeWidth=1;fontFamily=Verdana;fontSize=8;align=center;" parent="_krw7o2FG_3SmGjkz55r-1" vertex="1">
          <mxGeometry x="1120" y="56.5" width="70" height="37" as="geometry" />
        </mxCell>
        <mxCell id="_krw7o2FG_3SmGjkz55r-130" style="edgeStyle=orthogonalEdgeStyle;rounded=0;orthogonalLoop=1;jettySize=auto;html=1;exitX=1;exitY=0.5;exitDx=0;exitDy=0;" parent="_krw7o2FG_3SmGjkz55r-1" source="_krw7o2FG_3SmGjkz55r-120" target="_krw7o2FG_3SmGjkz55r-123" edge="1">
          <mxGeometry relative="1" as="geometry" />
        </mxCell>
        <mxCell id="_krw7o2FG_3SmGjkz55r-120" value="Agree / disagree with Jurisdiction" style="rounded=1;whiteSpace=wrap;html=1;shadow=0;labelBackgroundColor=none;strokeWidth=1;fontFamily=Verdana;fontSize=8;align=center;" parent="_krw7o2FG_3SmGjkz55r-1" vertex="1">
          <mxGeometry x="1210" y="56.5" width="70" height="37" as="geometry" />
        </mxCell>
        <mxCell id="_krw7o2FG_3SmGjkz55r-131" style="edgeStyle=orthogonalEdgeStyle;rounded=0;orthogonalLoop=1;jettySize=auto;html=1;exitX=1;exitY=0.5;exitDx=0;exitDy=0;entryX=0;entryY=0.5;entryDx=0;entryDy=0;" parent="_krw7o2FG_3SmGjkz55r-1" source="_krw7o2FG_3SmGjkz55r-123" target="_krw7o2FG_3SmGjkz55r-124" edge="1">
          <mxGeometry relative="1" as="geometry" />
        </mxCell>
        <mxCell id="_krw7o2FG_3SmGjkz55r-123" value="State if there are other legal proceedings" style="rounded=1;whiteSpace=wrap;html=1;shadow=0;labelBackgroundColor=none;strokeWidth=1;fontFamily=Verdana;fontSize=8;align=center;" parent="_krw7o2FG_3SmGjkz55r-1" vertex="1">
          <mxGeometry x="1300" y="56.5" width="70" height="37" as="geometry" />
        </mxCell>
        <mxCell id="_krw7o2FG_3SmGjkz55r-134" style="edgeStyle=orthogonalEdgeStyle;rounded=0;orthogonalLoop=1;jettySize=auto;html=1;exitX=1;exitY=0.5;exitDx=0;exitDy=0;entryX=0;entryY=0.5;entryDx=0;entryDy=0;" parent="_krw7o2FG_3SmGjkz55r-1" source="_krw7o2FG_3SmGjkz55r-124" target="_krw7o2FG_3SmGjkz55r-125" edge="1">
          <mxGeometry relative="1" as="geometry" />
        </mxCell>
        <mxCell id="_krw7o2FG_3SmGjkz55r-124" value="Agree / disagree to cost order" style="rounded=1;whiteSpace=wrap;html=1;shadow=0;labelBackgroundColor=none;strokeWidth=1;fontFamily=Verdana;fontSize=8;align=center;" parent="_krw7o2FG_3SmGjkz55r-1" vertex="1">
          <mxGeometry x="1390" y="56.5" width="70" height="37" as="geometry" />
        </mxCell>
        <mxCell id="5xeZqOf08oSWxwelz_sC-15" style="edgeStyle=orthogonalEdgeStyle;rounded=0;orthogonalLoop=1;jettySize=auto;html=1;exitX=1;exitY=0.5;exitDx=0;exitDy=0;entryX=0;entryY=0.5;entryDx=0;entryDy=0;entryPerimeter=0;" parent="_krw7o2FG_3SmGjkz55r-1" source="_krw7o2FG_3SmGjkz55r-125" target="_krw7o2FG_3SmGjkz55r-100" edge="1">
          <mxGeometry relative="1" as="geometry" />
        </mxCell>
        <mxCell id="_krw7o2FG_3SmGjkz55r-125" value="&lt;b&gt;Submit event:&lt;br&gt;&lt;/b&gt;Draft AOS&lt;br&gt;&lt;b&gt;To state:&lt;/b&gt;&amp;nbsp;&lt;br&gt;AosDrafted" style="rounded=1;whiteSpace=wrap;html=1;shadow=0;labelBackgroundColor=none;strokeWidth=1;fontFamily=Verdana;fontSize=8;align=center;" parent="_krw7o2FG_3SmGjkz55r-1" vertex="1">
          <mxGeometry x="1480" y="48.25" width="70" height="53.5" as="geometry" />
        </mxCell>
        <mxCell id="5xeZqOf08oSWxwelz_sC-13" value="&lt;h6&gt;&lt;span style=&quot;font-size: 8px ; font-weight: 400&quot;&gt;Respondent solicitor should not be able to see cases that have not yet been issued&lt;/span&gt;&lt;/h6&gt;" style="shape=note;whiteSpace=wrap;html=1;backgroundOutline=1;darkOpacity=0.05;size=12;fillColor=#FFFFCC;spacingRight=10;" parent="_krw7o2FG_3SmGjkz55r-1" vertex="1">
          <mxGeometry x="640" y="44.75" width="80" height="60" as="geometry" />
        </mxCell>
        <mxCell id="5xeZqOf08oSWxwelz_sC-42" value="&lt;h6&gt;&lt;span style=&quot;font-size: 8px ; font-weight: 400&quot;&gt;AOS drafted state not available for citizens&lt;/span&gt;&lt;/h6&gt;" style="shape=note;whiteSpace=wrap;html=1;backgroundOutline=1;darkOpacity=0.05;size=12;fillColor=#FFFFCC;spacingRight=10;" parent="_krw7o2FG_3SmGjkz55r-1" vertex="1">
          <mxGeometry x="1480" y="100" width="70" height="46.5" as="geometry" />
        </mxCell>
        <mxCell id="5xeZqOf08oSWxwelz_sC-45" value="&lt;h6&gt;&lt;span style=&quot;font-size: 8px ; font-weight: 400&quot;&gt;No use of the &#39;AOS started&#39; state by respondent solicitors&lt;/span&gt;&lt;/h6&gt;" style="shape=note;whiteSpace=wrap;html=1;backgroundOutline=1;darkOpacity=0.05;size=12;fillColor=#FFFFCC;spacingRight=10;" parent="_krw7o2FG_3SmGjkz55r-1" vertex="1">
          <mxGeometry x="750" y="99.25" width="80" height="46.5" as="geometry" />
        </mxCell>
        <mxCell id="5xeZqOf08oSWxwelz_sC-66" value="&lt;h6&gt;&lt;span style=&quot;font-size: 8px ; font-weight: 400&quot;&gt;Will they still be sent a respondent AOS pack?&lt;/span&gt;&lt;/h6&gt;" style="shape=note;whiteSpace=wrap;html=1;backgroundOutline=1;darkOpacity=0.05;size=12;fillColor=#FFFFCC;spacingRight=10;" parent="_krw7o2FG_3SmGjkz55r-1" vertex="1">
          <mxGeometry x="550" y="44" width="70" height="51.5" as="geometry" />
        </mxCell>
        <mxCell id="5xeZqOf08oSWxwelz_sC-71" value="&lt;h6&gt;&lt;span style=&quot;font-size: 8px ; font-weight: 400&quot;&gt;Are there some SOT screens?&lt;/span&gt;&lt;/h6&gt;" style="shape=note;whiteSpace=wrap;html=1;backgroundOutline=1;darkOpacity=0.05;size=12;fillColor=#FFFFCC;spacingRight=10;" parent="_krw7o2FG_3SmGjkz55r-1" vertex="1">
          <mxGeometry x="1810" y="90.75" width="70" height="46.5" as="geometry" />
        </mxCell>
        <mxCell id="5xeZqOf08oSWxwelz_sC-14" value="&lt;h6&gt;&lt;span style=&quot;font-size: 8px ; font-weight: 400&quot;&gt;Confirm that only one email address can be captured.&lt;/span&gt;&lt;/h6&gt;" style="shape=note;whiteSpace=wrap;html=1;backgroundOutline=1;darkOpacity=0.05;size=12;fillColor=#FFFFCC;spacingRight=10;" parent="_krw7o2FG_3SmGjkz55r-1" vertex="1">
          <mxGeometry x="1029" y="4.5" width="70" height="46.5" as="geometry" />
        </mxCell>
        <mxCell id="p6Xr37g33TZ3pclMuA7w-3" value="&lt;h6&gt;&lt;span style=&quot;font-size: 8px ; font-weight: 400&quot;&gt;No notification sent to say that it has been assigned - how do they know they have a new case assigned to them?&lt;/span&gt;&lt;/h6&gt;" style="shape=note;whiteSpace=wrap;html=1;backgroundOutline=1;darkOpacity=0.05;size=12;fillColor=#FFFFCC;spacingRight=10;" parent="_krw7o2FG_3SmGjkz55r-1" vertex="1">
          <mxGeometry x="750" y="2" width="110" height="51.5" as="geometry" />
        </mxCell>
        <mxCell id="_krw7o2FG_3SmGjkz55r-62" value="&lt;span style=&quot;font-size: 18px&quot;&gt;Divorce - Petitioner solicitor nominates a respondent solicitor&#39;s firm, and respondent solicitor completes AOS&lt;/span&gt;" style="rounded=0;whiteSpace=wrap;html=1;fillColor=#000000;fontColor=#FFFFFF;" parent="1" vertex="1">
          <mxGeometry x="40" y="19" width="2140" height="40" as="geometry" />
        </mxCell>
        <mxCell id="_krw7o2FG_3SmGjkz55r-75" style="edgeStyle=orthogonalEdgeStyle;rounded=0;orthogonalLoop=1;jettySize=auto;html=1;exitX=0.5;exitY=1;exitDx=0;exitDy=0;entryX=0;entryY=0.5;entryDx=0;entryDy=0;" parent="1" source="p6Xr37g33TZ3pclMuA7w-1" target="_krw7o2FG_3SmGjkz55r-3" edge="1">
          <mxGeometry relative="1" as="geometry" />
        </mxCell>
        <mxCell id="_krw7o2FG_3SmGjkz55r-81" value="Co-respondent Organisation&lt;br&gt;&amp;nbsp;Administrator" style="swimlane;html=1;startSize=30;horizontal=0;" parent="1" vertex="1">
          <mxGeometry x="40" y="700" width="2140" height="170" as="geometry" />
        </mxCell>
        <mxCell id="p6Xr37g33TZ3pclMuA7w-9" style="edgeStyle=orthogonalEdgeStyle;rounded=0;orthogonalLoop=1;jettySize=auto;html=1;exitX=1;exitY=0.5;exitDx=0;exitDy=0;entryX=0;entryY=0.5;entryDx=0;entryDy=0;" parent="_krw7o2FG_3SmGjkz55r-81" source="5xeZqOf08oSWxwelz_sC-22" target="p6Xr37g33TZ3pclMuA7w-8" edge="1">
          <mxGeometry relative="1" as="geometry" />
        </mxCell>
        <mxCell id="5xeZqOf08oSWxwelz_sC-22" value="Navigate to unassigned cases" style="rounded=1;whiteSpace=wrap;html=1;shadow=0;labelBackgroundColor=none;strokeWidth=1;fontFamily=Verdana;fontSize=8;align=center;" parent="_krw7o2FG_3SmGjkz55r-81" vertex="1">
          <mxGeometry x="590" y="60" width="70" height="37" as="geometry" />
        </mxCell>
        <mxCell id="5xeZqOf08oSWxwelz_sC-65" value="&lt;h6&gt;&lt;span style=&quot;font-size: 8px ; font-weight: 400&quot;&gt;Does not receive any notifications based on role&lt;/span&gt;&lt;/h6&gt;" style="shape=note;whiteSpace=wrap;html=1;backgroundOutline=1;darkOpacity=0.05;size=12;fillColor=#FFFFCC;spacingRight=10;" parent="_krw7o2FG_3SmGjkz55r-81" vertex="1">
          <mxGeometry x="430" y="52.75" width="70" height="51.5" as="geometry" />
        </mxCell>
        <mxCell id="p6Xr37g33TZ3pclMuA7w-8" value="Assign case to solicitor(s) in my firm" style="rounded=1;whiteSpace=wrap;html=1;shadow=0;labelBackgroundColor=none;strokeWidth=1;fontFamily=Verdana;fontSize=8;align=center;" parent="_krw7o2FG_3SmGjkz55r-81" vertex="1">
          <mxGeometry x="680" y="60" width="70" height="37" as="geometry" />
        </mxCell>
        <mxCell id="_krw7o2FG_3SmGjkz55r-87" value="Co-respondent solicitor " style="swimlane;html=1;startSize=30;horizontal=0;" parent="1" vertex="1">
          <mxGeometry x="40" y="870" width="2140" height="160" as="geometry" />
        </mxCell>
        <mxCell id="5xeZqOf08oSWxwelz_sC-24" value="Navigate to cases in &#39;Awaiting AOS&#39; state" style="rounded=1;whiteSpace=wrap;html=1;shadow=0;labelBackgroundColor=none;strokeWidth=1;fontFamily=Verdana;fontSize=8;align=center;fillColor=#f8cecc;strokeColor=#b85450;" parent="_krw7o2FG_3SmGjkz55r-87" vertex="1">
          <mxGeometry x="765" y="70" width="70" height="37" as="geometry" />
        </mxCell>
        <mxCell id="p6Xr37g33TZ3pclMuA7w-12" style="edgeStyle=orthogonalEdgeStyle;rounded=0;orthogonalLoop=1;jettySize=auto;html=1;exitX=1;exitY=0.5;exitDx=0;exitDy=0;entryX=0;entryY=0.5;entryDx=0;entryDy=0;" parent="_krw7o2FG_3SmGjkz55r-87" source="5xeZqOf08oSWxwelz_sC-25" target="5xeZqOf08oSWxwelz_sC-30" edge="1">
          <mxGeometry relative="1" as="geometry" />
        </mxCell>
        <mxCell id="5xeZqOf08oSWxwelz_sC-25" value="Add / update email address" style="rounded=1;whiteSpace=wrap;html=1;shadow=0;labelBackgroundColor=none;strokeWidth=1;fontFamily=Verdana;fontSize=8;align=center;" parent="_krw7o2FG_3SmGjkz55r-87" vertex="1">
          <mxGeometry x="1040" y="70" width="70" height="37" as="geometry" />
        </mxCell>
        <mxCell id="5xeZqOf08oSWxwelz_sC-29" value="Read divorce petition" style="rounded=1;whiteSpace=wrap;html=1;shadow=0;labelBackgroundColor=none;strokeWidth=1;fontFamily=Verdana;fontSize=8;align=center;" parent="_krw7o2FG_3SmGjkz55r-87" vertex="1">
          <mxGeometry x="860" y="70" width="70" height="37" as="geometry" />
        </mxCell>
        <mxCell id="p6Xr37g33TZ3pclMuA7w-11" style="edgeStyle=orthogonalEdgeStyle;rounded=0;orthogonalLoop=1;jettySize=auto;html=1;exitX=1;exitY=0.5;exitDx=0;exitDy=0;entryX=0;entryY=0.5;entryDx=0;entryDy=0;" parent="_krw7o2FG_3SmGjkz55r-87" source="5xeZqOf08oSWxwelz_sC-28" target="5xeZqOf08oSWxwelz_sC-25" edge="1">
          <mxGeometry relative="1" as="geometry" />
        </mxCell>
        <mxCell id="5xeZqOf08oSWxwelz_sC-28" value="&lt;b&gt;Start event: &lt;br&gt;&lt;/b&gt;Draft AOS" style="rounded=1;whiteSpace=wrap;html=1;shadow=0;labelBackgroundColor=none;strokeWidth=1;fontFamily=Verdana;fontSize=8;align=center;" parent="_krw7o2FG_3SmGjkz55r-87" vertex="1">
          <mxGeometry x="950" y="70" width="70" height="37" as="geometry" />
        </mxCell>
        <mxCell id="5xeZqOf08oSWxwelz_sC-39" style="edgeStyle=orthogonalEdgeStyle;rounded=0;orthogonalLoop=1;jettySize=auto;html=1;exitX=1;exitY=0.5;exitDx=0;exitDy=0;" parent="_krw7o2FG_3SmGjkz55r-87" source="5xeZqOf08oSWxwelz_sC-30" target="5xeZqOf08oSWxwelz_sC-32" edge="1">
          <mxGeometry relative="1" as="geometry">
            <mxPoint x="1225" y="88.5" as="targetPoint" />
          </mxGeometry>
        </mxCell>
        <mxCell id="5xeZqOf08oSWxwelz_sC-30" value="State if client admits adultery" style="rounded=1;whiteSpace=wrap;html=1;shadow=0;labelBackgroundColor=none;strokeWidth=1;fontFamily=Verdana;fontSize=8;align=center;" parent="_krw7o2FG_3SmGjkz55r-87" vertex="1">
          <mxGeometry x="1135" y="70" width="70" height="37" as="geometry" />
        </mxCell>
        <mxCell id="5xeZqOf08oSWxwelz_sC-41" style="edgeStyle=orthogonalEdgeStyle;rounded=0;orthogonalLoop=1;jettySize=auto;html=1;exitX=1;exitY=0.5;exitDx=0;exitDy=0;entryX=0;entryY=0.5;entryDx=0;entryDy=0;" parent="_krw7o2FG_3SmGjkz55r-87" source="5xeZqOf08oSWxwelz_sC-32" target="5xeZqOf08oSWxwelz_sC-33" edge="1">
          <mxGeometry relative="1" as="geometry" />
        </mxCell>
        <mxCell id="5xeZqOf08oSWxwelz_sC-32" value="State how&amp;nbsp; client wishes to respond (defend or not defend)" style="rounded=1;whiteSpace=wrap;html=1;shadow=0;labelBackgroundColor=none;strokeWidth=1;fontFamily=Verdana;fontSize=8;align=center;" parent="_krw7o2FG_3SmGjkz55r-87" vertex="1">
          <mxGeometry x="1230" y="70" width="70" height="37" as="geometry" />
        </mxCell>
        <mxCell id="5xeZqOf08oSWxwelz_sC-60" style="edgeStyle=orthogonalEdgeStyle;rounded=0;orthogonalLoop=1;jettySize=auto;html=1;exitX=1;exitY=0.5;exitDx=0;exitDy=0;entryX=0;entryY=0.5;entryDx=0;entryDy=0;" parent="_krw7o2FG_3SmGjkz55r-87" source="5xeZqOf08oSWxwelz_sC-33" target="5xeZqOf08oSWxwelz_sC-46" edge="1">
          <mxGeometry relative="1" as="geometry" />
        </mxCell>
        <mxCell id="5xeZqOf08oSWxwelz_sC-33" value="Agree / disagree to cost order" style="rounded=1;whiteSpace=wrap;html=1;shadow=0;labelBackgroundColor=none;strokeWidth=1;fontFamily=Verdana;fontSize=8;align=center;" parent="_krw7o2FG_3SmGjkz55r-87" vertex="1">
          <mxGeometry x="1320" y="70" width="70" height="37" as="geometry" />
        </mxCell>
        <mxCell id="5xeZqOf08oSWxwelz_sC-35" style="edgeStyle=orthogonalEdgeStyle;rounded=0;orthogonalLoop=1;jettySize=auto;html=1;exitX=1;exitY=0.5;exitDx=0;exitDy=0;entryX=0;entryY=0.5;entryDx=0;entryDy=0;" parent="_krw7o2FG_3SmGjkz55r-87" source="5xeZqOf08oSWxwelz_sC-29" target="5xeZqOf08oSWxwelz_sC-28" edge="1">
          <mxGeometry relative="1" as="geometry" />
        </mxCell>
        <mxCell id="5xeZqOf08oSWxwelz_sC-36" value="&lt;h6&gt;&lt;span style=&quot;font-size: 8px ; font-weight: 400&quot;&gt;Confirm that only one email address can be captured.&lt;/span&gt;&lt;/h6&gt;" style="shape=note;whiteSpace=wrap;html=1;backgroundOutline=1;darkOpacity=0.05;size=12;fillColor=#FFFFCC;spacingRight=10;" parent="_krw7o2FG_3SmGjkz55r-87" vertex="1">
          <mxGeometry x="1040" y="14.5" width="70" height="46.5" as="geometry" />
        </mxCell>
        <mxCell id="5xeZqOf08oSWxwelz_sC-53" style="edgeStyle=orthogonalEdgeStyle;rounded=0;orthogonalLoop=1;jettySize=auto;html=1;exitX=1;exitY=0.5;exitDx=0;exitDy=0;entryX=0;entryY=0.5;entryDx=0;entryDy=0;entryPerimeter=0;" parent="_krw7o2FG_3SmGjkz55r-87" source="5xeZqOf08oSWxwelz_sC-46" target="5xeZqOf08oSWxwelz_sC-51" edge="1">
          <mxGeometry relative="1" as="geometry" />
        </mxCell>
        <mxCell id="5xeZqOf08oSWxwelz_sC-46" value="&lt;b&gt;Submit event:&lt;br&gt;&lt;/b&gt;Draft AOS&lt;br&gt;&lt;b&gt;To state:&lt;/b&gt;&amp;nbsp;&lt;br&gt;?" style="rounded=1;whiteSpace=wrap;html=1;shadow=0;labelBackgroundColor=none;strokeWidth=1;fontFamily=Verdana;fontSize=8;align=center;" parent="_krw7o2FG_3SmGjkz55r-87" vertex="1">
          <mxGeometry x="1430" y="61.75" width="70" height="53.5" as="geometry" />
        </mxCell>
        <mxCell id="5xeZqOf08oSWxwelz_sC-47" value="&lt;h6&gt;&lt;span style=&quot;font-size: 8px ; font-weight: 400&quot;&gt;New event&amp;nbsp; needed different from draft AOS e.g &#39;Draft AOS co-respondent&#39;&lt;/span&gt;&lt;/h6&gt;" style="shape=note;whiteSpace=wrap;html=1;backgroundOutline=1;darkOpacity=0.05;size=12;fillColor=#FFFFCC;spacingRight=10;" parent="_krw7o2FG_3SmGjkz55r-87" vertex="1">
          <mxGeometry x="940" y="12" width="90" height="46.5" as="geometry" />
        </mxCell>
        <mxCell id="5xeZqOf08oSWxwelz_sC-48" value="&lt;h6&gt;&lt;span style=&quot;font-size: 8px ; font-weight: 400&quot;&gt;The state should not&amp;nbsp; change if the co-resp solicitor draft AOS is completed. However, may need to&amp;nbsp; consider new state changes if there is a need&amp;nbsp; for the co-resp to see a draft and submit a final version&lt;/span&gt;&lt;/h6&gt;" style="shape=note;whiteSpace=wrap;html=1;backgroundOutline=1;darkOpacity=0.05;size=12;fillColor=#FFFFCC;spacingRight=10;" parent="_krw7o2FG_3SmGjkz55r-87" vertex="1">
          <mxGeometry x="1390" width="140" height="56.5" as="geometry" />
        </mxCell>
        <mxCell id="5xeZqOf08oSWxwelz_sC-57" style="edgeStyle=orthogonalEdgeStyle;rounded=0;orthogonalLoop=1;jettySize=auto;html=1;exitX=0;exitY=0.5;exitDx=0;exitDy=0;entryX=0.442;entryY=0.983;entryDx=0;entryDy=0;entryPerimeter=0;" parent="_krw7o2FG_3SmGjkz55r-87" source="5xeZqOf08oSWxwelz_sC-49" target="5xeZqOf08oSWxwelz_sC-51" edge="1">
          <mxGeometry relative="1" as="geometry" />
        </mxCell>
        <mxCell id="5xeZqOf08oSWxwelz_sC-49" value="Event: &lt;br&gt;Update AOS&lt;br&gt;(no change to state)" style="rounded=1;whiteSpace=wrap;html=1;shadow=0;labelBackgroundColor=none;strokeWidth=1;fontFamily=Verdana;fontSize=8;align=center;" parent="_krw7o2FG_3SmGjkz55r-87" vertex="1">
          <mxGeometry x="1660" y="114.75" width="70" height="37" as="geometry" />
        </mxCell>
        <mxCell id="5xeZqOf08oSWxwelz_sC-50" value="&lt;b&gt;Event:&lt;/b&gt; &lt;br&gt;Submit AOS&lt;br&gt;&lt;b&gt;To state:&lt;/b&gt; ?" style="rounded=1;whiteSpace=wrap;html=1;shadow=0;labelBackgroundColor=none;strokeWidth=1;fontFamily=Verdana;fontSize=8;align=center;" parent="_krw7o2FG_3SmGjkz55r-87" vertex="1">
          <mxGeometry x="1730" y="68.25" width="70" height="37" as="geometry" />
        </mxCell>
        <mxCell id="5xeZqOf08oSWxwelz_sC-55" style="edgeStyle=orthogonalEdgeStyle;rounded=0;orthogonalLoop=1;jettySize=auto;html=1;exitX=0.5;exitY=0;exitDx=0;exitDy=0;exitPerimeter=0;entryX=0.5;entryY=0;entryDx=0;entryDy=0;" parent="_krw7o2FG_3SmGjkz55r-87" source="5xeZqOf08oSWxwelz_sC-51" target="5xeZqOf08oSWxwelz_sC-50" edge="1">
          <mxGeometry relative="1" as="geometry" />
        </mxCell>
        <mxCell id="5xeZqOf08oSWxwelz_sC-58" value="No update required" style="edgeLabel;html=1;align=center;verticalAlign=middle;resizable=0;points=[];" parent="5xeZqOf08oSWxwelz_sC-55" vertex="1" connectable="0">
          <mxGeometry x="-0.5981" y="3" relative="1" as="geometry">
            <mxPoint x="24.17" as="offset" />
          </mxGeometry>
        </mxCell>
        <mxCell id="5xeZqOf08oSWxwelz_sC-56" style="edgeStyle=orthogonalEdgeStyle;rounded=0;orthogonalLoop=1;jettySize=auto;html=1;exitX=1;exitY=0.5;exitDx=0;exitDy=0;exitPerimeter=0;entryX=0.5;entryY=0;entryDx=0;entryDy=0;" parent="_krw7o2FG_3SmGjkz55r-87" source="5xeZqOf08oSWxwelz_sC-51" target="5xeZqOf08oSWxwelz_sC-49" edge="1">
          <mxGeometry relative="1" as="geometry" />
        </mxCell>
        <mxCell id="5xeZqOf08oSWxwelz_sC-59" value="Update" style="edgeLabel;html=1;align=center;verticalAlign=middle;resizable=0;points=[];" parent="5xeZqOf08oSWxwelz_sC-56" vertex="1" connectable="0">
          <mxGeometry x="-0.6807" y="-1" relative="1" as="geometry">
            <mxPoint as="offset" />
          </mxGeometry>
        </mxCell>
        <mxCell id="5xeZqOf08oSWxwelz_sC-51" value="Does &lt;br&gt;the AOS response need &lt;br&gt;updating?" style="strokeWidth=1;html=1;shape=mxgraph.flowchart.decision;whiteSpace=wrap;rounded=1;shadow=0;labelBackgroundColor=none;fontFamily=Verdana;fontSize=8;align=center;" parent="_krw7o2FG_3SmGjkz55r-87" vertex="1">
          <mxGeometry x="1540" y="63.5" width="80" height="50" as="geometry" />
        </mxCell>
        <mxCell id="5xeZqOf08oSWxwelz_sC-52" value="&lt;h6&gt;&lt;span style=&quot;font-size: 8px ; font-weight: 400&quot;&gt;Co-resp response, should not mean a state change (for both contested and non-contested)&lt;/span&gt;&lt;/h6&gt;" style="shape=note;whiteSpace=wrap;html=1;backgroundOutline=1;darkOpacity=0.05;size=12;fillColor=#FFFFCC;spacingRight=10;" parent="_krw7o2FG_3SmGjkz55r-87" vertex="1">
          <mxGeometry x="1810" y="58.5" width="140" height="56.5" as="geometry" />
        </mxCell>
        <mxCell id="5xeZqOf08oSWxwelz_sC-67" value="&lt;h6&gt;&lt;span style=&quot;font-size: 8px ; font-weight: 400&quot;&gt;Will they still be sent a co-respondent AOS pack?&lt;/span&gt;&lt;/h6&gt;" style="shape=note;whiteSpace=wrap;html=1;backgroundOutline=1;darkOpacity=0.05;size=12;fillColor=#FFFFCC;spacingRight=10;" parent="_krw7o2FG_3SmGjkz55r-87" vertex="1">
          <mxGeometry x="680" y="12" width="70" height="51.5" as="geometry" />
        </mxCell>
        <mxCell id="5xeZqOf08oSWxwelz_sC-68" value="&lt;h6&gt;&lt;span style=&quot;font-size: 8px ; font-weight: 400&quot;&gt;If cases that the solicitor has responded to do not change state, then looking for cases in &#39;Awaiting AOS&#39; won&#39;t tell them which ones they need to action. Similarly, a respondent or respondent solicitor may have already replied (which means the cases will be in the state &#39;AOSStarted&#39;; &#39; &#39;AwaitingDecreeNisi; AwaitingAnswers or &#39;AOSSubmitted&#39;&lt;/span&gt;&lt;/h6&gt;" style="shape=note;whiteSpace=wrap;html=1;backgroundOutline=1;darkOpacity=0.05;size=12;fillColor=#FFFFCC;spacingRight=10;" parent="_krw7o2FG_3SmGjkz55r-87" vertex="1">
          <mxGeometry x="550" y="80" width="200" height="70" as="geometry" />
        </mxCell>
        <mxCell id="p6Xr37g33TZ3pclMuA7w-10" value="&lt;h6&gt;&lt;span style=&quot;font-size: 8px ; font-weight: 400&quot;&gt;No notification sent to say that it has been assigned - how do they know they have a new case assigned to them?&lt;/span&gt;&lt;/h6&gt;" style="shape=note;whiteSpace=wrap;html=1;backgroundOutline=1;darkOpacity=0.05;size=12;fillColor=#FFFFCC;spacingRight=10;" parent="_krw7o2FG_3SmGjkz55r-87" vertex="1">
          <mxGeometry x="560" y="7" width="110" height="51.5" as="geometry" />
        </mxCell>
        <mxCell id="5xeZqOf08oSWxwelz_sC-23" style="edgeStyle=orthogonalEdgeStyle;rounded=0;orthogonalLoop=1;jettySize=auto;html=1;exitX=0.5;exitY=1;exitDx=0;exitDy=0;entryX=0;entryY=0.5;entryDx=0;entryDy=0;" parent="1" source="_krw7o2FG_3SmGjkz55r-71" target="5xeZqOf08oSWxwelz_sC-22" edge="1">
          <mxGeometry relative="1" as="geometry" />
        </mxCell>
        <mxCell id="5xeZqOf08oSWxwelz_sC-26" style="edgeStyle=orthogonalEdgeStyle;rounded=0;orthogonalLoop=1;jettySize=auto;html=1;exitX=1;exitY=0.5;exitDx=0;exitDy=0;" parent="1" source="p6Xr37g33TZ3pclMuA7w-8" target="5xeZqOf08oSWxwelz_sC-24" edge="1">
          <mxGeometry relative="1" as="geometry" />
        </mxCell>
        <mxCell id="5xeZqOf08oSWxwelz_sC-61" value="Last update: 08/12/2020" style="text;html=1;strokeColor=none;fillColor=none;align=center;verticalAlign=middle;whiteSpace=wrap;rounded=0;fontColor=#FFFFFF;" parent="1" vertex="1">
          <mxGeometry x="2010" y="29" width="170" height="20" as="geometry" />
        </mxCell>
      </root>
    </mxGraphModel>
  </diagram>
</mxfile>
